<?xml version="1.0" encoding="utf-8"?>
<!-- Generator: Adobe Illustrator 25.2.1, SVG Export Plug-In . SVG Version: 6.00 Build 0)  -->
<svg version="1.1" id="Layer_1" xmlns="http://www.w3.org/2000/svg" xmlns:xlink="http://www.w3.org/1999/xlink" x="0px" y="0px"
	 viewBox="0 0 33 33" style="enable-background:new 0 0 33 33;" xml:space="preserve">
<style type="text/css">
	.st0{fill:#231F20;}
</style>
<path class="st0" d="M16.2,33c-1.9,0-3.5-0.3-4.9-0.8c-1.4-0.5-2.5-1.2-3.3-2c-0.8-0.8-1.5-1.8-1.9-2.7c-0.4-1-0.6-2-0.6-2.9
	c0-1,0.2-1.7,0.7-2C6.8,22.2,7.6,22,8.8,22c1.4,0,2.4,0.2,2.9,0.5c0.5,0.3,0.7,0.9,0.7,1.8c0,0.5,0.1,1,0.3,1.3
	c0.2,0.3,0.5,0.6,0.9,0.8c0.4,0.2,0.8,0.3,1.3,0.4c0.5,0.1,1,0.1,1.5,0.1c1.5,0,2.6-0.3,3.2-0.9c0.6-0.6,0.9-1.6,0.9-3.1V22
	c0-1.5-0.4-2.5-1.2-2.9c-0.8-0.4-1.8-0.7-3.1-0.7c-0.7,0-1.3-0.3-1.6-0.8c-0.3-0.6-0.4-1.2-0.4-1.8c0-0.7,0.1-1.3,0.4-1.9
	c0.3-0.6,0.8-0.8,1.6-0.8c0.6,0,1.1-0.1,1.7-0.2c0.5-0.1,1-0.5,1.3-1c0.3-0.6,0.5-1.4,0.5-2.6c0-1.3-0.3-2.2-1-2.6
	C18.1,6.2,17.3,6,16.4,6c-0.5,0-1,0-1.4,0.1c-0.4,0.1-0.8,0.2-1.1,0.4c-0.3,0.2-0.5,0.4-0.6,0.7c-0.1,0.3-0.2,0.6-0.2,1.1
	c0,0.7-0.2,1.4-0.6,1.8c-0.4,0.5-1.3,0.7-2.6,0.7c-1.1,0-1.9-0.1-2.4-0.2c-0.5-0.2-0.8-0.5-1-0.9c-0.2-0.4-0.2-1-0.2-1.7
	c0-0.9,0.2-1.8,0.5-2.7c0.3-0.9,0.9-1.8,1.7-2.6c0.8-0.8,1.8-1.5,3.2-1.9C12.9,0.3,14.5,0,16.4,0c1.9,0,3.6,0.3,5.1,0.8
	C23,1.3,24.2,2.2,25,3.3c0.9,1.2,1.3,2.8,1.3,4.8c0,1.6-0.3,3.1-0.9,4.5C24.9,14,24,15,22.9,15.5c1.3,0.5,2.4,1.2,3.3,2.3
	c0.9,1,1.3,2.5,1.3,4.3v0.8c0,2.4-0.5,4.4-1.5,5.9c-1,1.5-2.4,2.5-4.1,3.2C20.2,32.7,18.3,33,16.2,33z"/>
</svg>
