<?xml version="1.0" encoding="utf-8"?>
<!-- Generator: Adobe Illustrator 25.2.1, SVG Export Plug-In . SVG Version: 6.00 Build 0)  -->
<svg version="1.1" id="Layer_1" xmlns="http://www.w3.org/2000/svg" xmlns:xlink="http://www.w3.org/1999/xlink" x="0px" y="0px"
	 viewBox="0 0 33 33" style="enable-background:new 0 0 33 33;" xml:space="preserve">
<style type="text/css">
	.st0{fill:#231F20;}
</style>
<path class="st0" d="M16.6,33c-2.4,0-4.4-0.4-6.1-1.2C8.9,31,7.6,30,6.8,28.7c-0.8-1.3-1.3-2.6-1.3-4c0-1.2,0.3-2,0.9-2.5
	c0.6-0.4,1.5-0.6,2.6-0.6c1.5,0,2.5,0.3,2.9,0.8c0.4,0.5,0.6,1.1,0.6,1.8c0,0.6,0.2,1.1,0.5,1.5c0.3,0.4,0.8,0.7,1.4,0.9
	c0.6,0.2,1.3,0.3,2,0.3c1.3,0,2.3-0.3,3-1c0.7-0.7,1.1-1.7,1.1-3.2v-0.8c0-1.5-0.4-2.6-1.1-3.3c-0.7-0.7-1.7-1.1-2.9-1.1H9.7
	c-1,0-1.7-0.2-2.1-0.7c-0.4-0.5-0.6-1.2-0.6-2c0-0.2,0-0.5,0-0.6c0-0.2,0-0.4,0.1-0.6L8.3,2.2C8.4,1.5,8.5,1,8.7,0.6
	C8.9,0.2,9.2,0,9.6,0h14.3C24.5,0,25,0.4,25.4,1c0.3,0.6,0.5,1.3,0.5,2.1c0,0.7-0.2,1.4-0.5,2.1c-0.3,0.6-0.8,1-1.5,1H14l-0.4,6h2.9
	c2.1,0,3.9,0.3,5.6,0.9c1.7,0.6,3,1.7,3.9,3.1c1,1.4,1.5,3.3,1.5,5.7v0.8c0,2.5-0.5,4.5-1.5,6c-1,1.5-2.3,2.6-3.9,3.3
	C20.4,32.7,18.6,33,16.6,33z"/>
</svg>
