<?xml version="1.0" encoding="utf-8"?>
<!-- Generator: Adobe Illustrator 25.2.1, SVG Export Plug-In . SVG Version: 6.00 Build 0)  -->
<svg version="1.1" id="Layer_1" xmlns="http://www.w3.org/2000/svg" xmlns:xlink="http://www.w3.org/1999/xlink" x="0px" y="0px"
	 viewBox="0 0 33 33" style="enable-background:new 0 0 33 33;" xml:space="preserve">
<style type="text/css">
	.st0{fill:#231F20;}
</style>
<path class="st0" d="M16.5,33c-2.1,0-3.9-0.3-5.6-1c-1.7-0.7-3-1.8-4-3.4c-1-1.6-1.5-3.6-1.5-6.2V10.6C5.5,8,6,6,7,4.4
	c1-1.6,2.4-2.7,4.1-3.4c1.7-0.7,3.6-1,5.8-1c1.9,0,3.5,0.3,4.8,0.8c1.3,0.5,2.4,1.2,3.3,2c0.9,0.8,1.5,1.7,1.9,2.7
	c0.4,1,0.6,1.9,0.6,2.9c0,1.1-0.3,1.8-0.8,2.2c-0.5,0.4-1.4,0.6-2.5,0.6c-1,0-1.8-0.2-2.5-0.5c-0.7-0.3-1.1-1-1.1-2
	c0-0.6-0.2-1-0.5-1.4c-0.4-0.4-0.8-0.7-1.4-0.9c-0.6-0.2-1.2-0.3-1.9-0.3c-1.3,0-2.3,0.4-3.1,1.1c-0.7,0.7-1.1,1.9-1.1,3.4v4
	c0.7-0.8,1.6-1.3,2.5-1.6c1-0.3,2-0.4,3.1-0.4c1.7,0,3.3,0.3,4.7,0.9c1.4,0.6,2.6,1.5,3.4,2.9c0.9,1.4,1.3,3.3,1.3,5.6v0.4
	c0,2.6-0.5,4.6-1.5,6.2c-1,1.6-2.3,2.7-3.9,3.4C20.4,32.7,18.6,33,16.5,33z M16.5,27.4c1.3,0,2.2-0.4,2.9-1.1
	c0.7-0.7,1.1-1.8,1.1-3.4v-0.4c0-1.6-0.4-2.8-1.1-3.5c-0.7-0.7-1.7-1-3-1c-1.2,0-2.2,0.3-2.9,0.9c-0.7,0.6-1.1,1.7-1.1,3.2v0.8
	c0,1.6,0.4,2.7,1.1,3.4C14.3,27,15.3,27.4,16.5,27.4z"/>
</svg>
