<?xml version="1.0" encoding="utf-8"?>
<!-- Generator: Adobe Illustrator 25.2.1, SVG Export Plug-In . SVG Version: 6.00 Build 0)  -->
<svg version="1.1" id="Layer_1" xmlns="http://www.w3.org/2000/svg" xmlns:xlink="http://www.w3.org/1999/xlink" x="0px" y="0px"
	 viewBox="0 0 33 33" style="enable-background:new 0 0 33 33;" xml:space="preserve">
<style type="text/css">
	.st0{fill:#231F20;}
</style>
<path class="st0" d="M13.6,33c-0.7,0-1.4-0.2-2.1-0.5c-0.7-0.3-1.2-0.7-1.7-1.3c-0.4-0.5-0.6-1.1-0.6-1.8c0-0.4,0.1-0.8,0.3-1.2
	l11-19.1V6.1h-8v3c0,0.6-0.4,1.1-1.1,1.5c-0.7,0.4-1.5,0.6-2.5,0.6s-1.7-0.2-2.4-0.6c-0.7-0.4-1-0.9-1-1.5V2.2c0-0.5,0.3-1,1-1.5
	C7.1,0.3,7.8,0,8.6,0h15.9c0.7,0,1.4,0.2,2,0.7c0.7,0.4,1,0.9,1,1.5v5.6c0,0.6-0.1,1.2-0.4,2c-0.3,0.8-0.6,1.5-1,2.2L15.6,32.1
	C15.3,32.7,14.6,33,13.6,33z"/>
</svg>
