<?xml version="1.0" encoding="utf-8"?>
<!-- Generator: Adobe Illustrator 25.2.1, SVG Export Plug-In . SVG Version: 6.00 Build 0)  -->
<svg version="1.1" id="Layer_1" xmlns="http://www.w3.org/2000/svg" xmlns:xlink="http://www.w3.org/1999/xlink" x="0px" y="0px"
	 viewBox="0 0 33 33" style="enable-background:new 0 0 33 33;" xml:space="preserve">
<style type="text/css">
	.st0{fill:#231F20;}
</style>
<path class="st0" d="M16.4,0C7.4,0,0.1,7.4,0.1,16.5S7.4,33,16.4,33s16.3-7.4,16.3-16.5S25.4,0,16.4,0z M24.1,23.1
	c-0.1,0.1-2.6,3-7.2,3c-5.6,0-9.5-4.2-9.5-9.7c0-5.4,4.1-9.5,9.4-9.5c4.4,0,6.7,2.5,6.8,2.6c0.1,0.1,0.2,0.3,0.2,0.5
	c0,0.2,0,0.3-0.1,0.4l-1.5,2.3c-0.3,0.4-0.8,0.5-1.2,0.2c0,0-1.7-1.6-4.1-1.6c-3,0-4.9,2.2-4.9,5.1c0,2.6,1.7,5.3,4.9,5.3
	c2.5,0,4.3-1.9,4.3-1.9c0.3-0.4,0.9-0.3,1.2,0.1l1.6,2.2c0.1,0.1,0.2,0.3,0.2,0.5C24.3,22.8,24.2,23,24.1,23.1z"/>
</svg>
