<?xml version="1.0" encoding="utf-8"?>
<!-- Generator: Adobe Illustrator 25.2.1, SVG Export Plug-In . SVG Version: 6.00 Build 0)  -->
<svg version="1.1" id="Layer_1" xmlns="http://www.w3.org/2000/svg" xmlns:xlink="http://www.w3.org/1999/xlink" x="0px" y="0px"
	 viewBox="0 0 33 33" style="enable-background:new 0 0 33 33;" xml:space="preserve">
<style type="text/css">
	.st0{fill:#231F20;}
</style>
<path class="st0" d="M10.8,20c-2.6,0.2-4.9,1.2-6.2,4.7c-0.1,0.4-0.5,0.6-0.9,0.6c-0.7,0-2.9-1.8-3.5-2.2c0,5.3,2.4,10,8.1,10
	c4.8,0,8.1-2.8,8.1-7.7c0-0.2,0-0.4-0.1-0.6L10.8,20z M29.3,0c-1,0-1.9,0.4-2.6,1.1c-13,11.8-14.4,12-14.4,15.5
	c0,0.9,0.2,1.7,0.6,2.5l4.1,3.4c0.5,0.1,0.9,0.2,1.4,0.2c4,0,6.2-2.9,13.4-16.5c0.5-0.9,0.9-1.9,0.9-3C32.8,1.4,31.1,0,29.3,0z"/>
</svg>
