<?xml version="1.0" encoding="utf-8"?>
<!-- Generator: Adobe Illustrator 25.2.1, SVG Export Plug-In . SVG Version: 6.00 Build 0)  -->
<svg version="1.1" id="Layer_1" xmlns="http://www.w3.org/2000/svg" xmlns:xlink="http://www.w3.org/1999/xlink" x="0px" y="0px"
	 viewBox="0 0 33 33" style="enable-background:new 0 0 33 33;" xml:space="preserve">
<style type="text/css">
	.st0{fill:#231F20;}
</style>
<path class="st0" d="M0,30.3l6.1,2l2.2-2.2L4.1,26L0,30.3z M7.6,15.5c-0.5,0.4-0.8,1-0.8,1.7c0,0.2,0,0.4,0.1,0.7l0.8,2.6l-3.1,3.1
	l5.8,5.9l3.1-3.1l2.6,0.8c0.8,0.3,1.7,0,2.3-0.7l2.2-2.6L10.1,13.4L7.6,15.5z M32,5.7l-3.8-3.9c-1.2-1.3-3.2-1.3-4.6-0.1L11.6,12.1
	l10.3,10.4l10.3-12.2C33.3,8.9,33.3,6.9,32,5.7z"/>
</svg>
