<?xml version="1.0" encoding="utf-8"?>
<!-- Generator: Adobe Illustrator 25.2.1, SVG Export Plug-In . SVG Version: 6.00 Build 0)  -->
<svg version="1.1" id="Layer_1" xmlns="http://www.w3.org/2000/svg" xmlns:xlink="http://www.w3.org/1999/xlink" x="0px" y="0px"
	 viewBox="0 0 33 33" style="enable-background:new 0 0 33 33;" xml:space="preserve">
<style type="text/css">
	.st0{fill:#231F20;}
</style>
<path class="st0" d="M32.8,0C29.5,0.2,6.3,2.5,4.7,18.6c-0.2,1.7-0.3,3.4-0.4,5.2l11.4-11.5c0.4-0.4,1-0.4,1.4,0s0.4,1.1,0,1.5
	L0.7,30.4c-0.6,0.6-0.6,1.6,0,2.2c0.6,0.6,1.6,0.6,2.2,0l3.6-3.7c2.7,0,5.4-0.2,8-0.5c3.4-0.4,6.2-1.7,8.4-3.6h-6.4l9.3-3.2
	c0.7-1,1.4-2,1.9-3h-5.2l6.8-3.4C32,8.6,32.7,1.7,32.8,0z"/>
</svg>
