<?xml version="1.0" encoding="utf-8"?>
<!-- Generator: Adobe Illustrator 25.2.1, SVG Export Plug-In . SVG Version: 6.00 Build 0)  -->
<svg version="1.1" id="Layer_1" xmlns="http://www.w3.org/2000/svg" xmlns:xlink="http://www.w3.org/1999/xlink" x="0px" y="0px"
	 viewBox="0 0 33 33" style="enable-background:new 0 0 33 33;" xml:space="preserve">
<style type="text/css">
	.st0{fill:#231F20;}
</style>
<path class="st0" d="M8.9,9c-1.3,0.4-2.3,1.4-2.8,2.7L0.2,29.7l0.9,0.9l9.6-9.7c-0.2-0.4-0.3-0.9-0.3-1.3c0-1.7,1.4-3.1,3.1-3.1
	s3.1,1.4,3.1,3.1s-1.4,3.1-3.1,3.1c-0.5,0-0.9-0.1-1.3-0.3l-9.6,9.7L3.5,33l17.8-6c1.3-0.4,2.3-1.5,2.6-2.8l2.7-9.8l-8.1-8.3L8.9,9z
	 M31.9,4.8l-3.8-3.9c-1.2-1.2-3.1-1.2-4.3,0l-3.6,3.6l8.2,8.3l3.6-3.6C33.1,8,33.1,6,31.9,4.8z"/>
</svg>
