<?xml version="1.0" encoding="utf-8"?>
<!-- Generator: Adobe Illustrator 25.2.1, SVG Export Plug-In . SVG Version: 6.00 Build 0)  -->
<svg version="1.1" id="Layer_1" xmlns="http://www.w3.org/2000/svg" xmlns:xlink="http://www.w3.org/1999/xlink" x="0px" y="0px"
	 viewBox="0 0 33 33" style="enable-background:new 0 0 33 33;" xml:space="preserve">
<style type="text/css">
	.st0{fill:#231F20;}
</style>
<g>
	<g>
		<path class="st0" d="M22.9,7.8l-2.6-0.3c-1.8,0.8-2.1,1.7-2.2,4.9c1.7,0,4.2-0.3,5.5,1c0.9-3.1,0.9-3.7,0.2-4.7
			C23.6,8.3,23.3,8,22.9,7.8z"/>
		<path class="st0" d="M21.1,0.7c-2.1,1.3-2.7,3.7-1.1,5.7c0,0,3.6,0.5,3.6,0.5c1-0.8,1.7-1.8,1.3-3.6c0-0.2,0-0.4,0.2-0.5
			c0.3-0.2,1.7,0,2.1,0C25.8,0.4,23.5-0.9,21.1,0.7z"/>
	</g>
	<g>
		<polygon class="st0" points="15.4,2.4 15.3,0 13.1,1.2 13.1,2.4 		"/>
		<polygon class="st0" points="17.3,8.5 11.4,8.5 11.8,12.4 17.1,12.4 		"/>
		<path class="st0" d="M17.4,7.7c0-0.5,0.3-1.6-0.2-2c-0.1-0.1-1-0.6-1.2-0.7c0,0,0-1.8,0-1.8l-3.4,0l0,1.8l-1,0.5
			c-0.8,0.4-0.3,1.6-0.3,2.2C11.3,7.7,17.4,7.7,17.4,7.7z"/>
	</g>
	<g>
		<path class="st0" d="M6.1,12.8c1-0.6,3.4-0.3,4.6-0.4c0,0-1.9-6.4-1.9-6.4L4.4,7.2L6.1,12.8z"/>
		<path class="st0" d="M8.5,5.2L8,3.3c-0.2-0.6-0.8-1-1.5-0.8l-2,0.6c-0.6,0.2-1,0.8-0.8,1.5l0.5,1.9L8.5,5.2z"/>
	</g>
	<path class="st0" d="M13.7,31.7v-5.8c0-1.6,1.3-2.8,2.8-2.8h6.1l0.9-6.3c0.2-1.5-1-2.9-2.5-2.9H7.7c-1.6,0-2.8,1.4-2.5,2.9l2,14
		C7.3,32.1,8.4,33,9.7,33h4.4C13.9,32.6,13.7,32.2,13.7,31.7z"/>
	<path class="st0" d="M28,24.5H16.6c-0.8,0-1.4,0.6-1.4,1.4v5.8c0,0.8,0.6,1.4,1.4,1.4H28c0.8,0,1.4-0.6,1.4-1.4v-5.8
		C29.4,25.1,28.8,24.5,28,24.5z M28.1,31.1c0,0.4-0.3,0.7-0.7,0.7h-4.7v-6.2h4.7c0.4,0,0.7,0.3,0.7,0.7V31.1z"/>
</g>
</svg>
