<?xml version="1.0" encoding="utf-8"?>
<!-- Generator: Adobe Illustrator 25.2.1, SVG Export Plug-In . SVG Version: 6.00 Build 0)  -->
<svg version="1.1" id="Layer_1" xmlns="http://www.w3.org/2000/svg" xmlns:xlink="http://www.w3.org/1999/xlink" x="0px" y="0px"
	 viewBox="0 0 33 33" style="enable-background:new 0 0 33 33;" xml:space="preserve">
<style type="text/css">
	.st0{fill:#231F20;}
</style>
<path class="st0" d="M32.1,19.6c1.2-1.2,1.2-3.2,0-4.4L21.8,4.7c-1.2-1.2-3.2-1.2-4.4,0L0.9,21.4c-1.2,1.2-1.2,3.2,0,4.4l6.2,6.3
	C7.7,32.7,8.4,33,9.3,33h22.9c0.4,0,0.8-0.4,0.8-0.8v-2.6c0-0.4-0.3-0.8-0.8-0.8h-9.3L32.1,19.6z M12.6,15.5l8.9,9l-4.3,4.4H9.7
	l-5.2-5.2L12.6,15.5z"/>
</svg>
