<?xml version="1.0" encoding="utf-8"?>
<!-- Generator: Adobe Illustrator 25.2.1, SVG Export Plug-In . SVG Version: 6.00 Build 0)  -->
<svg version="1.1" id="Layer_1" xmlns="http://www.w3.org/2000/svg" xmlns:xlink="http://www.w3.org/1999/xlink" x="0px" y="0px"
	 viewBox="0 0 33 33" style="enable-background:new 0 0 33 33;" xml:space="preserve">
<style type="text/css">
	.st0{fill:#231F20;}
</style>
<path class="st0" d="M22.6,9.3c-1,0.1-1.9,0.4-2.4,1.8c-0.1,0.2-0.2,0.2-0.4,0.2c-0.3,0-1.1-0.7-1.3-0.8c0,2,0.9,3.8,3.1,3.8
	c1.8,0,3.1-1.1,3.1-2.9c0-0.1,0-0.1,0-0.2L22.6,9.3z M29.6,1.7c-0.4,0-0.7,0.2-1,0.4c-5,4.5-5.5,4.6-5.5,5.9c0,0.3,0.1,0.7,0.2,0.9
	l1.5,1.3c0.2,0,0.4,0.1,0.5,0.1c1.5,0,2.4-1.1,5.1-6.3c0.2-0.4,0.3-0.7,0.3-1.1C30.9,2.2,30.3,1.7,29.6,1.7z"/>
<path class="st0" d="M27.6,12.9v8.5h-0.8c-0.5,0-0.9-0.2-1.3-0.5L21.7,17c-0.7-0.7-1.8-0.7-2.5,0l-3.8,3.8c-0.3,0.3-0.8,0.5-1.3,0.5
	H7.1c-1,0-1.8-0.8-1.8-1.8V6.7C5.3,5.8,6.1,5,7,5h15c0.7,0,1.3-0.3,1.9-0.7l1.2-1.1c0.3-0.2,0.1-0.7-0.3-0.7H5.8
	c-1.6,0-2.9,1.3-2.9,2.9v21.5c0,1.6,1.3,2.9,2.9,2.9h21.5c1.6,0,2.9-1.3,2.9-2.9V9.6c0-0.4-0.5-0.6-0.7-0.2l-1.3,2
	C27.8,11.8,27.6,12.4,27.6,12.9z"/>
<circle class="st0" cx="12.7" cy="13" r="2.6"/>
</svg>
