<?xml version="1.0" encoding="utf-8"?>
<!-- Generator: Adobe Illustrator 25.2.1, SVG Export Plug-In . SVG Version: 6.00 Build 0)  -->
<svg version="1.1" id="Layer_1" xmlns="http://www.w3.org/2000/svg" xmlns:xlink="http://www.w3.org/1999/xlink" x="0px" y="0px"
	 viewBox="0 0 33 33" style="enable-background:new 0 0 33 33;" xml:space="preserve">
<style type="text/css">
	.st0{fill:#231F20;}
</style>
<g>
	<path class="st0" d="M31,16.5H19.1v6.3c0,2.5-2,4.5-4.5,4.5H8.3V31c0,1.1,0.9,2,2,2H31c1.1,0,2-0.9,2-2V18.4
		C33,17.3,32.1,16.5,31,16.5z"/>
	<path class="st0" d="M13.7,24.7H2.9c-1.6,0-2.8-1.3-2.8-2.8v-19c0-1.6,1.3-2.8,2.8-2.8h10.9c1.6,0,2.8,1.3,2.8,2.8v19
		C16.6,23.5,15.3,24.7,13.7,24.7z"/>
	<path class="st0" d="M32.6,8.7c-0.5-0.5-1.3-0.5-1.8,0l-0.7,0.7c-0.2-5.2-4.5-9.3-9.7-9.3c-0.7,0-1.3,0.6-1.3,1.3s0.6,1.3,1.3,1.3
		c3.8,0,6.9,3,7.1,6.7l-0.6-0.6c-0.5-0.5-1.3-0.5-1.8,0s-0.5,1.3,0,1.8l2.8,2.8c0.2,0.2,0.6,0.4,0.9,0.4c0.3,0,0.6-0.1,0.9-0.4
		l2.8-2.8C33.1,10,33.1,9.2,32.6,8.7z"/>
</g>
</svg>
