<?xml version="1.0" encoding="utf-8"?>
<!-- Generator: Adobe Illustrator 25.2.1, SVG Export Plug-In . SVG Version: 6.00 Build 0)  -->
<svg version="1.1" id="Layer_1" xmlns="http://www.w3.org/2000/svg" xmlns:xlink="http://www.w3.org/1999/xlink" x="0px" y="0px"
	 viewBox="0 0 33 33" style="enable-background:new 0 0 33 33;" xml:space="preserve">
<style type="text/css">
	.st0{fill:#231F20;}
</style>
<path class="st0" d="M33,9.7v19.7c0,2-1.6,3.5-3.5,3.5H3.5c-2,0-3.5-1.6-3.5-3.5V3.6C0,1.6,1.6,0,3.5,0h19.7c1,0,1.9,0.4,2.5,1
	L32,7.2C32.6,7.9,33,8.8,33,9.7z M23.3,5.3L23.1,5c-0.2-0.2-0.4-0.3-0.6-0.3H5.6c-0.5,0-0.9,0.4-0.9,0.9v7.7c0,0.5,0.4,0.9,0.9,0.9
	h17.1c0.5,0,0.9-0.4,0.9-0.9V5.9C23.6,5.6,23.5,5.4,23.3,5.3z M21.2,23.6c0-2.6-2.1-4.7-4.7-4.7s-4.7,2.1-4.7,4.7s2.1,4.7,4.7,4.7
	S21.2,26.2,21.2,23.6z"/>
</svg>
