<?xml version="1.0" encoding="utf-8"?>
<!-- Generator: Adobe Illustrator 25.2.1, SVG Export Plug-In . SVG Version: 6.00 Build 0)  -->
<svg version="1.1" id="Layer_1" xmlns="http://www.w3.org/2000/svg" xmlns:xlink="http://www.w3.org/1999/xlink" x="0px" y="0px"
	 viewBox="0 0 33 33" style="enable-background:new 0 0 33 33;" xml:space="preserve">
<style type="text/css">
	.st0{fill:#231F20;}
</style>
<path class="st0" d="M26.6,16.3h-1.4h-4.6h-8.3V8.9c0-2.3,1.9-4.2,4.1-4.2s4.1,1.9,4.1,4.2v1.9c0,1.3,1,2.3,2.3,2.3s2.3-1,2.3-2.3
	V8.9C25.2,4,21.3,0,16.5,0S7.8,4,7.8,8.9v7.4H6.4c-1.5,0-2.8,1.3-2.8,2.8v11.2c0,1.5,1.2,2.8,2.8,2.8h20.2c1.5,0,2.8-1.3,2.8-2.8V19
	C29.4,17.5,28.1,16.3,26.6,16.3z"/>
</svg>
