<?xml version="1.0" encoding="utf-8"?>
<!-- Generator: Adobe Illustrator 25.2.1, SVG Export Plug-In . SVG Version: 6.00 Build 0)  -->
<svg version="1.1" id="Layer_1" xmlns="http://www.w3.org/2000/svg" xmlns:xlink="http://www.w3.org/1999/xlink" x="0px" y="0px"
	 viewBox="0 0 33 33" style="enable-background:new 0 0 33 33;" xml:space="preserve">
<style type="text/css">
	.st0{fill:#231F20;}
</style>
<path class="st0" d="M28.7,7.2c0-1.7-1.4-3.1-3.1-3.1h-5.1c0-2.3-1.8-4.1-4.1-4.1s-4.1,1.8-4.1,4.1H7.3c-1.7,0-3.1,1.4-3.1,3.1v22.7
	c0,1.7,1.4,3.1,3.1,3.1h18.3c1.7,0,3.1-1.4,3.1-3.1V7.2z M22.6,10c0,0.2-0.2,0.4-0.4,0.4H10.8c-0.2,0-0.4-0.2-0.4-0.4V8.7
	c0-0.2,0.2-0.4,0.4-0.4h11.5c0.2,0,0.4,0.2,0.4,0.4V10z M16.5,2.6c0.8,0,1.5,0.7,1.5,1.5s-0.7,1.5-1.5,1.5S15,5,15,4.1
	S15.7,2.6,16.5,2.6z"/>
</svg>
