<?xml version="1.0" encoding="utf-8"?>
<!-- Generator: Adobe Illustrator 25.2.1, SVG Export Plug-In . SVG Version: 6.00 Build 0)  -->
<svg version="1.1" id="Layer_1" xmlns="http://www.w3.org/2000/svg" xmlns:xlink="http://www.w3.org/1999/xlink" x="0px" y="0px"
	 viewBox="0 0 33 33" style="enable-background:new 0 0 33 33;" xml:space="preserve">
<style type="text/css">
	.st0{fill:#231F20;}
</style>
<path class="st0" d="M15.9,0c-0.7,0-1.2,0.6-1.2,1.2v25.3l-1.5-1.7c-0.6-0.6-1.6-0.6-2.2,0l-0.7,0.7c-0.6,0.6-0.6,1.6,0,2.2l4.8,4.7
	c0.8,0.8,2.1,0.8,2.9,0l4.8-4.7c0.6-0.6,0.6-1.6,0-2.2L22,24.9c-0.6-0.6-1.6-0.6-2.2,0l-1.5,1.7V1.3c0-0.7-0.6-1.2-1.2-1.2H15.9z"/>
</svg>
