<?xml version="1.0" encoding="utf-8"?>
<!-- Generator: Adobe Illustrator 25.2.1, SVG Export Plug-In . SVG Version: 6.00 Build 0)  -->
<svg version="1.1" id="Layer_1" xmlns="http://www.w3.org/2000/svg" xmlns:xlink="http://www.w3.org/1999/xlink" x="0px" y="0px"
	 viewBox="0 0 33 33" style="enable-background:new 0 0 33 33;" xml:space="preserve">
<style type="text/css">
	.st0{fill:#231F20;}
</style>
<path class="st0" d="M32.4,18L21.2,29.4c-0.8,0.8-2,0.8-2.8,0l-1.9-1.9c-0.8-0.8-0.8-2.1,0-2.8l8-8.1l-8-8.1c-0.8-0.8-0.8-2.1,0-2.8
	l1.9-1.9c0.8-0.8,2-0.8,2.8,0l11.3,11.4C33.2,15.9,33.2,17.2,32.4,18z M16.5,15.1c0.8,0.8,0.8,2.1,0,2.9L5.2,29.4
	c-0.8,0.8-2,0.8-2.8,0l-1.9-1.9c-0.8-0.8-0.8-2.1,0-2.8l8-8.1l-8-8.1c-0.8-0.8-0.8-2.1,0-2.8l1.9-1.9c0.8-0.8,2-0.8,2.8,0L16.5,15.1
	z"/>
</svg>
