<?xml version="1.0" encoding="utf-8"?>
<!-- Generator: Adobe Illustrator 25.2.1, SVG Export Plug-In . SVG Version: 6.00 Build 0)  -->
<svg version="1.1" id="Layer_1" xmlns="http://www.w3.org/2000/svg" xmlns:xlink="http://www.w3.org/1999/xlink" x="0px" y="0px"
	 viewBox="0 0 33 33" style="enable-background:new 0 0 33 33;" xml:space="preserve">
<style type="text/css">
	.st0{fill:#231F20;}
</style>
<path class="st0" d="M1,9.6l14.8,6.8c0.4,0.2,0.9,0.2,1.4,0L32,9.6C33,9.1,33,7.5,32,7L17.2,0.2C17,0.1,16.7,0,16.5,0
	S16,0.1,15.8,0.2L1,7C0,7.5,0,9.1,1,9.6z M32,15.3l-3.7-1.7L18,18.3c-0.5,0.2-1,0.3-1.5,0.3c-0.5,0-1-0.1-1.5-0.3L4.7,13.6L1,15.3
	C0,15.7,0,17.3,1,17.8l14.8,6.8c0.4,0.2,0.9,0.2,1.4,0L32,17.8C33,17.3,33,15.7,32,15.3z M32,23.5l-3.7-1.7L18,26.5
	c-0.5,0.2-1,0.3-1.5,0.3c-0.5,0-1-0.1-1.5-0.3L4.7,21.8L1,23.5C0,24,0,25.6,1,26.1l14.8,6.8c0.4,0.2,0.9,0.2,1.4,0L32,26.1
	C33,25.6,33,24,32,23.5z"/>
</svg>
