<?xml version="1.0" encoding="utf-8"?>
<!-- Generator: Adobe Illustrator 25.2.1, SVG Export Plug-In . SVG Version: 6.00 Build 0)  -->
<svg version="1.1" id="Layer_1" xmlns="http://www.w3.org/2000/svg" xmlns:xlink="http://www.w3.org/1999/xlink" x="0px" y="0px"
	 viewBox="0 0 33 33" style="enable-background:new 0 0 33 33;" xml:space="preserve">
<style type="text/css">
	.st0{fill:#231F20;}
</style>
<g id="history">
	<path class="st0" d="M16.5,33c-3.9,0-7.5-1.4-10.4-3.7C5.4,28.8,5.4,27.7,6,27l0.7-0.7c0.6-0.6,1.5-0.6,2.1-0.1
		c2.1,1.7,4.7,2.6,7.6,2.6c6.8,0,12.2-5.5,12.2-12.2c0-6.8-5.5-12.2-12.2-12.2c-3.2,0-6.2,1.3-8.4,3.3l3.4,3.4
		c0.7,0.7,0.2,1.8-0.8,1.8H1.1c-0.6,0-1.1-0.5-1.1-1.1V2.1c0-0.9,1.1-1.4,1.8-0.8l3.3,3.3c3-2.8,7-4.6,11.4-4.6
		C25.6,0,33,7.4,33,16.5C33,25.6,25.6,33,16.5,33z M18.7,22l-4.4-3.4v-9C14.4,8.7,15.1,8,16,8H17c0.9,0,1.6,0.7,1.6,1.6v6.9l2.7,2.1
		c0.7,0.5,0.8,1.5,0.3,2.2L21,21.7C20.4,22.4,19.4,22.6,18.7,22z"/>
</g>
</svg>
