<svg xmlns="http://www.w3.org/2000/svg" viewBox="0 0 33 33"><rect x="9" y="2.85" width="24" height="3" rx="0.5"/><rect x="6" y="10.95" width="27" height="3" rx="0.5"/><rect x="11" y="19.05" width="22" height="3" rx="0.5"/><rect y="2.85" width="7" height="3" rx="0.5"/><rect y="10.95" width="4" height="3" rx="0.5"/><rect y="19.05" width="9" height="3" rx="0.5"/><rect x="7" y="27.15" width="6" height="3" rx="0.5"/><path d="M1.8,32.54.38,31.12a.5.5,0,0,1,0-.7l1.77-1.77L.38,26.88a.5.5,0,0,1,0-.7L1.8,24.76a.5.5,0,0,1,.7,0L6,28.3A.5.5,0,0,1,6,29L2.5,32.54A.5.5,0,0,1,1.8,32.54Z"/></svg>