<svg xmlns="http://www.w3.org/2000/svg" viewBox="0 0 33 33"><path d="M16.5,2A14.5,14.5,0,1,1,2,16.5,14.51,14.51,0,0,1,16.5,2m0-2A16.5,16.5,0,1,0,33,16.5,16.5,16.5,0,0,0,16.5,0Z"/><path d="M16.5,7.71A8.79,8.79,0,1,1,7.71,16.5,8.8,8.8,0,0,1,16.5,7.71m0-2A10.79,10.79,0,1,0,27.29,16.5,10.79,10.79,0,0,0,16.5,5.71Z"/><path d="M20.52,26.2l2.29,5.54a16.49,16.49,0,0,0,8.93-8.93L26.2,20.52A10.6,10.6,0,0,1,20.52,26.2Z"/><path d="M6.8,20.52,1.26,22.81a16.49,16.49,0,0,0,8.93,8.93l2.29-5.54A10.6,10.6,0,0,1,6.8,20.52Z"/><path d="M12.48,6.8,10.19,1.26a16.49,16.49,0,0,0-8.93,8.93L6.8,12.48A10.6,10.6,0,0,1,12.48,6.8Z"/><path d="M26.2,12.48l5.54-2.29a16.49,16.49,0,0,0-8.93-8.93L20.52,6.8A10.6,10.6,0,0,1,26.2,12.48Z"/></svg>