<?xml version="1.0" encoding="utf-8"?>
<!-- Generator: Adobe Illustrator 25.2.1, SVG Export Plug-In . SVG Version: 6.00 Build 0)  -->
<svg version="1.1" id="Layer_1" xmlns="http://www.w3.org/2000/svg" xmlns:xlink="http://www.w3.org/1999/xlink" x="0px" y="0px"
	 viewBox="0 0 33 33" style="enable-background:new 0 0 33 33;" xml:space="preserve">
<style type="text/css">
	.st0{fill:#231F20;}
</style>
<path class="st0" d="M32.7,27.1L27,22.6c1.7-1.5,3.1-3.3,4.2-5.3c0.1-0.2,0.2-0.5,0.2-0.8c0-0.3-0.1-0.5-0.2-0.8
	c-2.8-5.5-8.3-9.3-14.7-9.3c-2.7,0-5.3,0.7-7.6,2L2.3,3.3C2.2,3.2,2,3.2,1.8,3.2c-0.3,0-0.5,0.1-0.7,0.3l-1,1.3C0.1,4.9,0,5.1,0,5.3
	C0,5.6,0.1,5.8,0.3,6l30.3,23.8c0.1,0.1,0.3,0.2,0.5,0.2c0.3,0,0.5-0.1,0.7-0.3l1-1.3c0.1-0.1,0.2-0.3,0.2-0.5
	C33,27.5,32.9,27.2,32.7,27.1z M16.5,24c-3.9,0-7.1-3.1-7.4-7l-5.4-4.2c-0.7,0.9-1.4,1.9-1.9,2.9c-0.1,0.2-0.2,0.5-0.2,0.8
	c0,0.3,0.1,0.5,0.2,0.8c2.8,5.5,8.3,9.3,14.7,9.3c1.4,0,2.7-0.2,4-0.5l-2.7-2.1C17.4,24,17,24,16.5,24z M23.2,19.7l-2-1.6
	c0.2-0.5,0.3-1,0.3-1.6c0,0,0,0,0-0.1c0-2.7-2.2-5-4.9-5c-0.5,0-0.9,0.1-1.4,0.2c0.3,0.4,0.5,0.9,0.5,1.5c0,0.2,0,0.4-0.1,0.5
	l-3.8-3C13.1,9.7,14.7,9,16.5,9h0c4.1,0,7.4,3.4,7.4,7.5c0,0,0,0,0,0C23.9,17.7,23.7,18.7,23.2,19.7z"/>
</svg>
