<?xml version="1.0" encoding="utf-8"?>
<!-- Generator: Adobe Illustrator 25.2.1, SVG Export Plug-In . SVG Version: 6.00 Build 0)  -->
<svg version="1.1" id="Layer_1" xmlns="http://www.w3.org/2000/svg" xmlns:xlink="http://www.w3.org/1999/xlink" x="0px" y="0px"
	 viewBox="0 0 33 33" style="enable-background:new 0 0 33 33;" xml:space="preserve">
<path d="M7.7,6.3l12.5,12.5l1.9,1.9h-6.6c-1.2,0-2.3,0.5-3.1,1.3l-4.7,4.7L7.7,6.3z M5.6,0C5.1,0,4.5,0.5,4.5,1.1v30.8
	C4.5,32.6,5,33,5.6,33c0.3,0,0.5-0.1,0.8-0.3l8.4-8.4c0.2-0.2,0.5-0.3,0.8-0.3h11.8c1,0,1.5-1.2,0.8-1.9l-5.6-5.6L6.4,0.3
	C6.2,0.1,5.9,0,5.6,0L5.6,0z"/>
</svg>
