<?xml version="1.0" encoding="utf-8"?>
<!-- Generator: Adobe Illustrator 25.2.1, SVG Export Plug-In . SVG Version: 6.00 Build 0)  -->
<svg version="1.1" id="Layer_1" xmlns="http://www.w3.org/2000/svg" xmlns:xlink="http://www.w3.org/1999/xlink" x="0px" y="0px"
	 viewBox="0 0 33 33" style="enable-background:new 0 0 33 33;" xml:space="preserve">
<style type="text/css">
	.st0{fill:#231F20;}
</style>
<path class="st0" d="M29.7,2.1h-7.6l-0.6-1.2C21.3,0.4,20.7,0,20.1,0v0h-7.3h0c-0.6,0-1.1,0.3-1.4,0.9l-0.6,1.2H3.3
	c-0.6,0-1,0.5-1,1v2.1c0,0.6,0.5,1,1,1h26.5c0.6,0,1-0.5,1-1V3.1C30.8,2.5,30.3,2.1,29.7,2.1z M5.6,30.1c0.1,1.6,1.4,2.9,3,2.9h15.6
	c1.6,0,2.9-1.3,3-2.9l1.3-21.9H4.3L5.6,30.1z"/>
</svg>
