<?xml version="1.0" encoding="utf-8"?>
<!-- Generator: Adobe Illustrator 25.2.1, SVG Export Plug-In . SVG Version: 6.00 Build 0)  -->
<svg version="1.1" id="Layer_1" xmlns="http://www.w3.org/2000/svg" xmlns:xlink="http://www.w3.org/1999/xlink" x="0px" y="0px"
	 viewBox="0 0 111.3 111.3" style="enable-background:new 0 0 111.3 111.3;" xml:space="preserve">
<style type="text/css">
	.st0{fill:#E6E7E8;}
</style>
<path class="st0" d="M85.3,63c0,0-4.5-38-4.6-38.1l-12.8-6.8L51.6,0c-0.2-0.1-0.4,0-0.4,0.2c0,0,0,0,0,0c0,4.1-0.8,10-1.9,17.9
	c-1.9,14-5,16.4-6.1,17.1c-5.3,3.8-11.2,0.1-15,4.4s-1.9,9.3-1.6,10.9c1.9,8.7,8.7,10,14.7,18.6c3.6,4.9,4.9,9.7,6.1,16.8
	c0,0.1,0.1,0.2,0.2,0.2c0.1,0,0.2-0.1,0.2-0.2V65.2l0,0L47.4,64l-2.6-11.3c-0.1-0.6,0.3-0.9,0.9-0.8c1.9,0.6,3.8,0.8,5.7,0.7
	l3.8-0.7c0.4-0.1,0.8,0,0.9,0.4c0.1,0.1,0.1,0.3,0,0.4L53.3,64c-0.1,0.3-0.1,0.7-0.2,1l0,0c0,0.3-0.1,0.6-0.1,0.9V111
	c0,0.2,0.3,0.3,0.6,0.2l29-38.5C84.6,70,85.5,66.5,85.3,63z M41.7,55c0.1,0.7-0.3,1.3-1,1.5c-0.3,0.1-0.7,0-0.9-0.2l-1.4-1
	c-3.8-3-5.6-4-6.9-6.6c-1-1.8-1.6-3.9-1.6-6c0.1-0.4,0.5-0.8,0.9-0.7c0.2,0,0.4,0.1,0.5,0.2c2.2,2.9,5,5.4,8.2,7.1
	c0.6,0.4,1.1,1,1.3,1.7L41.7,55z M61.2,49.4c3.2-1.8,6.1-4.3,8.4-7.2c0.3-0.6,1.3-0.2,1.3,0.5c0,2.1-0.6,4.1-1.6,6
	c-1.1,2.6-4.7,5-8.4,7.8c-0.6,0.4-1.4,0.2-1.7-0.3c-0.2-0.3-0.3-0.6-0.2-0.9l1-4.1C60.1,50.3,60.6,49.7,61.2,49.4z M64.1,88.5
	l-3.8,4.8c-0.4,0.4-1,0.5-1.4,0.2c-0.2-0.2-0.4-0.4-0.4-0.7V68.6c0-1.5,0.7-2.9,1.8-3.9l1.4-1.1c0.5-0.3,1.2-0.1,1.6,0.4
	c0.1,0.1,0.1,0.3,0.1,0.4l0.9,23.4C64.3,88,64.3,88.3,64.1,88.5z M72.2,78.2l-3.4,4.4c-0.4,0.4-1,0.5-1.4,0.2
	c-0.2-0.2-0.4-0.4-0.4-0.7l-0.8-21.4c0-0.3,0.1-0.6,0.3-0.8l2.9-2.3c0.4-0.4,1.1-0.3,1.5,0.1c0.2,0.2,0.2,0.4,0.3,0.6l1.4,19.2
	C72.5,77.6,72.4,77.9,72.2,78.2z M77.3,71.7l-0.5,0.6c-0.3,0.5-1,0.5-1.4,0.2c-0.2-0.2-0.3-0.4-0.4-0.6l-1.3-17.4
	c0-0.3,0.1-0.7,0.3-0.9l2.3-1.8c0.5-0.3,1.1-0.2,1.4,0.3c0.1,0.1,0.1,0.3,0.2,0.4l1.4,12.3C79.6,67.2,78.8,69.7,77.3,71.7z"/>
</svg>
