<svg xmlns="http://www.w3.org/2000/svg" viewBox="0 0 882.1 792"><defs><style>.a{fill:#231f20;}</style></defs><polygon class="a" points="181.3 608 171.9 637.7 161.9 612.2 181.3 608"/><polygon class="a" points="180.9 603.3 149.4 601.2 200.3 584 180.9 603.3"/><polygon class="a" points="121.6 608.5 140.3 618.2 121.6 619 121.6 608.5"/><polygon class="a" points="155.4 616.6 162.1 637.6 143.2 627.3 155.4 616.6"/><polygon class="a" points="81.7 612.4 107.1 616.1 106.5 621.6 81.7 612.4"/><polygon class="a" points="99.3 628.2 109.8 643.4 66.7 632.4 99.3 628.2"/><polygon class="a" points="174.8 662.8 138.5 632.8 123.7 634.3 149 658.4 174.8 662.8"/><polygon class="a" points="221.1 680.6 212.5 678.7 220 689.7 221.1 680.6"/><polygon class="a" points="231.1 685.6 231.9 685.1 234.7 692.3 238.4 690.7 240 691.9 241.7 689.3 242.7 688.8 245.7 688.9 245 687.8 250.2 685.6 236.2 682.1 240.8 679 231.7 681 231.7 681.1 230.1 680.7 231.3 683.7 231.1 685.6"/><polygon class="a" points="31.7 631.4 22.8 634 19.2 653.4 28.7 657.8 31.7 631.4"/><polygon class="a" points="117.6 644.2 111 659.9 126.7 642.1 117.6 644.2"/><polygon class="a" points="548.9 667.8 544.1 676.7 557.9 671.4 548.9 667.8"/><polygon class="a" points="524.4 677.2 532.9 671.1 528.1 670.1 523.9 676.6 522 674.6 519.7 685.9 526.8 679.7 524.4 677.2"/><polygon class="a" points="744.2 646.1 739.6 648.3 745.8 656.4 744.2 646.1"/><polygon class="a" points="681.7 638.4 678.3 646.1 669.2 666.6 688.8 646.3 681.7 638.4"/><polygon class="a" points="686.1 679.7 702.3 646.3 695.3 648.2 677.9 666.6 686.1 679.7"/><path class="a" d="M871.9,643.3l-5.5,2-1.6-8.2-9.1,8.6-8.6-6.3.4,13-13.1,4.8-9.3-3.6,4-2.3-10.2-11.9-7.1,13.1-24.7-5.4-5.4,6.6-.3,3.8-6.7-3.5h0l6.3-13.3-20.7,26.6-3-3-1.9,2.2-5.3-6.4-5.2,15.4h-4l-3.3-3.7-6.4,3,3.5-20.9-12.6,19.5,5.5,7.9-1.9-1.4-.7,1.4-11.2-4.1,1.4,2.8h-4.5l-7.1,5.4-.7-.4,12.6-15.1,4.2-.9,4.6-1.8-5.5-16-9.7,8.2-7.4,24.7-7.2-4.9.3-2.2-11.2,8.9-5-.2-.9-9.5-6.2,9.1h-1.2l-2.1,1.8-2.5.4-1.4-2.1-3.4.4,2.6,2.2-4.9.9.9-1-3.2-8.1-2,.8.5-2.1,6.1,4.3,5.9-3.3-9.7-5.1-1-1.8.3-1.2h-.9l-1-1.9,2.1-1.2v.8L668,666l-3.2-2.5L669,661l-9.3-1.4-2-1.6v1.2l-5.1-.8-1.9,3.7-.5-.9-2.8,5.8.4.7-2.5,4.7-17.4,1.8,4.1-5.9-17.5,7.2h-1.6l.7.3-6.9,2.8,6.2,9.2-6.2-2.9-7.2-9.1-10.9,16.3-2.5-.6-.3,4.8h-.4l-3.2-1.6-7.2-9.9-3,4.2.8-3.1,6.8-5.1,7.8,7.3,1.6-16.6h-3l1.9-5.5-9.2,5.3-9.7-.3,1.3,1.1-4.2,4-.8-1.2-2.3,4.1-4.2,4,5.2,6.8,6.4-17.6,2.5,2.5-4.2,2.4.8,10.6-5,4H570l-3.4,4.8-2.7-3.1-3.3,3.2-12.2-1.3-3.1-8.7-5.2,7.5-5.6.2,2.7,5.7-.6,1.8-29-2.2H332.7l-13.1-3-2,3h-8.9l-2.7-2.3-2.4,2.3h-6.7l-1.5-1.5-3-5.8-2.5,1h-6.5l-1-1.2-12.1,2.9-3.7-2.8-2.3,3.4-9.7-10.2-5.8,10.7-3.4,2.4-.9-5-14.7,5.8v-.5l-1.5.5-2.3-2.6-7.6.7-1.9-8-6.3,7.5,3.7.9-6.4.5-7.8-2v1.4l-.9,1.2-1-4-4.5,4.8h-3.3l6-12.1,1.1.3.3,4.6,5.2-6,2.8.4-.9-2.6,5.3-6.2-14-5-.6,1.2-20.9,1,4,3.1-6,6.1,17.5,2.1v13.1h-.1l-2.9-2.7h-.8l-3.5,2.2h-2l-6.3-6.8-.8-2.6-2.5.5-1.6-15.8-8.6,3.7h-2.8l-22.4-16.4,10.1,25.9-.4.4-7.8-11.8-.4.5L122,655.1l-5,7-.3,6.6,18.4,10.2-5.1,6.4-3.7,1.8V682L111,685.1l2.9-1.8,17.8-4.3-19-9.3,2.5-3.9L103,665l-42.1-9.6L77.7,677l-4.6,3.4-.3-1.6-4.2-1-9.5-19.7,1.3-4.6-12.8-2.3,3.8-6.1-2.2-8.6-11.6,4,1.8,11.2-3.9,1.8h5.4l1.8,2.2.2-2.2h2.9l-3.9,5.5-3.4,4.7-5.3-4,2.1,2.9-.7,5-2.1,3.9,1.6-.7-.7,4.9-7.7-6.7.6-.5-6.9-5.8-.2.5-1-.8.2,2.5L12,675.4H10.7L4.4,665l1.8,1-1.7-9.6,10.3-2.5-4.1-7.7,7.6,4.3.3-9.4-16.7.2,7,4L0,648.7v14l4.2,2.2-1,7.2L0,670.6V792H882.1V644.8ZM56.1,668l-3.2,6.9.9,1-12-2.9-2.6-4.2,11-4.7,6.3,1.4-.8,2.3Zm6.3,8.2-3.6-5.8,8,6.9Zm89,11.9-1.1-1.2,3.9-3.6,7.5,4.2ZM541,697.5h-.4l.3-.8,3.2.4Zm61.7-2.1h-1.3l-1.5-.4H603Zm20.6-3.8h-2.5l-4.1-1.9,6.4-9,7.1,7.9Zm8,3.4h-.1l-.4-5.7,1.1,1.3Zm8.2-4.1-.4,1.5-6.7-5.5v.2l-2.3-5.3,13.4,4.7Zm10.8-19ZM679,689.6V688l3-.7Zm49,3.5-3.8.3,4.6-3.3.2,1Zm4.6-9.1-.4-.7-2.3-.5.7-4,2.2,4.8Zm48.2-16.2V667l-11,4.5,2.5,1.5-4.5,1.8-.3-.3,1-3.5-1.9,2.6-.9-.9,6.5-13.6,7.4,2.7,1.2,1.7-.2,1.2h.9l1.2,1.7Zm5.8-4.4Zm8.2.3-4.5,1.8,1.3-3.2,9.3-2.2Z"/><polygon class="a" points="520.9 348.1 573.8 366.2 587.2 272.6 520.9 323.5 520.9 348.1"/><polygon class="a" points="520.9 404.8 571.1 370.6 520.9 352.2 520.9 404.8"/><path class="a" d="M402.5,232l44.2,43.4V222h-29v-8h65v8h-29v52.5l44.8-43V209.7L482.3,179H418l-16,31v22"/><path class="a" d="M498.5,275l31-31.1L513.6,228c-9.8,10-37.1,36.8-47.5,47Z"/><path class="a" d="M433.9,275c-10.3-10.2-37.6-37-47.5-47L371,243.9,402,275Z"/><polygon class="a" points="520.9 317.7 600.3 254 555.9 225.5 494.3 287.1 520.9 317.7"/><polygon class="a" points="481.5 401.4 517.7 404.8 517.7 391.2 459 379.1 481.5 401.4"/><polygon class="a" points="517.7 353.9 469.9 361.9 459 376.7 517.7 388.8 517.7 353.9"/><path class="a" d="M436.1,393.7l13.8,2.3,16.4-3.9L454.1,378l10.6-16.7c-17.4-5.3-13.1-4.7-30.7-1.3l-2.3,3.5v4.3l-3,3.6v5.5l2,3.3v4.2l3,3.4v2.7Z"/><path class="a" d="M421,378l9.1-10.8v-5.3l5.1-7.5,15.2-8.1,12.7,6,5,5,3.4-.3.7-5.9-21.8-18.5c-3.6,1.7-20.6,10.8-24.4,10.8-3,2.1-15.5,20.7-17.9,24l8,10.6Z"/><polygon class="a" points="450.3 348.2 436.1 355.3 434.7 357.7 450.3 353.9 467.4 359.1 462.2 353.9 450.3 348.2"/><polygon class="a" points="394.3 432 418.5 432 430.2 412 470.3 412 482 432 506.2 432 473.4 398 427.1 398 394.3 432"/><polygon class="a" points="521.1 407.8 486.3 404.5 514.7 435 481 435 469.7 444.2 469.7 557.4 538.6 432 521.1 407.8"/><polygon class="a" points="481.8 544.5 550 623.1 520.9 474.3 481.8 544.5"/><polygon class="a" points="469.4 566.4 500.7 572.6 480.3 548.7 469.4 566.4"/><polygon class="a" points="469.7 637.6 507.4 607.7 512.9 587.3 505.7 578.7 469.7 570.8 469.7 637.6"/><polygon class="a" points="497.9 682.6 513.9 610.5 511 610.6 469.7 643.3 469.7 699.7 502 706.4 518.2 702.8 515 692.6 497.9 682.6"/><polygon class="a" points="385.4 435 424.9 394 432.4 393.9 430.5 391.3 429.9 388.2 426.5 385.2 425.9 380.3 416.7 380 420 384.8 390.7 391.3 361.2 432 430.7 558.3 430.7 444.3 419.3 435 385.4 435"/><polygon class="a" points="379.7 474.3 350.6 623.1 418.7 544.5 379.7 474.3"/><polygon class="a" points="399.8 572.6 431.1 566.4 420.3 548.7 399.8 572.6"/><polygon class="a" points="387.5 587.3 393 607.7 430.7 637.6 430.7 570.8 394.6 578.7 387.5 587.3"/><polygon class="a" points="386.4 610.5 402.5 682.6 385.4 692.6 382.2 702.8 398.4 706.4 430.7 699.7 430.7 643.3 389.4 610.6 386.4 610.5"/><polygon class="a" points="467.9 416 433.8 416 423.9 432.2 434.7 440.7 434.7 700 446.7 700 446.7 437.7 440.9 431.9 450.7 421.9 460.5 431.9 454.7 437.7 454.7 700 466.7 700 466.7 440.1 476.1 432.2 467.9 416"/><path class="a" d="M517.7,323c-1.1-1.3-27.4-31.1-27.4-31.4l-37.5,37.5L476.7,350v7.1l41-7.1Z"/><polygon class="a" points="348.8 394.6 405.4 366.7 422.1 343.2 373.1 345.3 348.8 394.6"/><polygon class="a" points="406 369.5 355.3 394.5 414.8 382.8 406 369.5"/><polygon class="a" points="369.8 345.5 320.9 346.4 344.6 392 369.8 345.5"/><polygon class="a" points="320.3 343.2 380 341.3 385.1 321.5 319.7 269.7 320.3 343.2"/><polygon class="a" points="414.4 293.5 346.4 227.2 309.1 255.3 386.9 317.9 414.4 293.5"/><polygon class="a" points="450.3 323.6 493.9 280 406.6 280 450.3 323.6"/><polygon class="a" points="384.4 341.6 430 340.1 448.9 328.8 416.6 296.5 389.4 320.2 384.4 341.6"/><polygon class="a" points="185.4 607.6 174.8 647.8 255.6 521.5 185.4 607.6"/><polygon class="a" points="197.6 706.4 214.2 666.3 174.4 654.3 197.6 706.4"/><polygon class="a" points="331 378 264.7 500.3 341 397.6 331 378"/><polygon class="a" points="258.6 610.8 296.9 618.4 270.4 562.2 258.6 610.8"/><polygon class="a" points="270.9 556.1 298 613.8 324.1 451.2 270.9 556.1"/><polygon class="a" points="358.9 429.9 384 393.8 350 400.2 327.4 444.6 358.9 429.9"/><polygon class="a" points="232.1 632.3 255.1 612.2 267 563.6 232.1 632.3"/><polygon class="a" points="327.7 447.8 300.1 619.7 332.6 642.3 355.4 434.8 327.7 447.8"/><path class="a" d="M213.7,663.1c30.1-61.9,98.8-199,130.3-261.5L267.7,503.3l-3.9,9.7L175.9,651.6Z"/><polygon class="a" points="351.9 627.5 345.7 627.2 376.7 469.3 358.5 434.7 335.4 643.5 369.2 649.4 377.5 599.8 351.9 627.5"/><polygon class="a" points="381.8 607 390.4 607 385.9 589.1 381.5 594 372.3 649.2 391.7 647.5 381.8 607"/></svg>