<svg xmlns="http://www.w3.org/2000/svg" viewBox="0 0 302.45 307.46"><defs><style>.a{fill:#231f20;}.b{fill:#e6e7e8;}</style></defs><rect class="a" y="137.42" width="302.45" height="170.04"/><path class="a" d="M188.27,56.16h-6.86v-.5h.31c.87,0,1.31-.27,1.31-.81a.8.8,0,0,0-.28-.52l-7-7.1v7.1c0,.88.57,1.33,1.71,1.33h.31v.5h-6.54v-.5h.31c1.15,0,1.73-.45,1.73-1.33V39.63c0-.89-.58-1.33-1.73-1.33h-.31v-.5h6.54v.5h-.31c-1.14,0-1.71.44-1.71,1.33v7l4.84-7a1.05,1.05,0,0,0,.22-.59c0-.49-.42-.74-1.24-.74h-.32v-.5h6.83v.5h-.28a2.35,2.35,0,0,0-1.55.5A5.14,5.14,0,0,0,183.19,40l-4.62,6.5,7.22,7.66c.91,1,1.63,1.46,2.17,1.46h.31Z"/><path class="a" d="M203,56.16h-6.17v-.5h.31c1,0,1.55-.4,1.55-1.2v-8l-4.59,1.79v6.23q0,1.2,1.62,1.2H196v.5h-6.16v-.5h.27c1.08,0,1.62-.4,1.62-1.21V45.24c0-1-.54-1.36-1.62-1.24l-.27,0v-.46H196V44l-.27,0c-1.08-.12-1.62.29-1.62,1.24v.62l7-2.72V54.45c0,.81.53,1.21,1.58,1.21H203Z"/><path class="a" d="M210.74,56.16h-6.2v-.5h.31c1,0,1.55-.4,1.55-1.21V45.24c0-.82-.52-1.24-1.55-1.24h-.31v-.43h6.2V44h-.28c-1.05,0-1.58.42-1.58,1.24v9.21c0,.81.53,1.21,1.58,1.21h.28Zm-1.86-14.67H206.4V39h2.48Z"/><path class="a" d="M225,61.89h-7.22c-.83,0-1.24.53-1.24,1.58v.28h-.47V57.89h.47v.28c0,1,.41,1.58,1.24,1.58h2.94V53.9l-7,2.7V45.21c0-.78-.53-1.18-1.58-1.18h-.28v-.49H225V44h-.28c-1.07,0-1.61.42-1.61,1.24V60.16c0,.82.54,1.23,1.61,1.23H225Zm-4.28-10.35V45.71H216.2V53.3Z"/><path class="a" d="M239.41,56.16h-6.16v-.5h.31c1.05,0,1.58-.4,1.58-1.2v-8l-4.62,1.8v6.23c0,.8.53,1.2,1.61,1.2h.28v.5h-6.17v-.5h.31c1,0,1.58-.4,1.58-1.21v-15c0-.82-.53-1.23-1.58-1.23h-.31V37.8h6.17v.44h-.28c-1.08,0-1.61.41-1.61,1.24v6.38l7-2.72V54.45c0,.81.54,1.21,1.62,1.21h.27Z"/><path class="a" d="M250.36,47.54h-.47v-.28c0-1.06-.41-1.58-1.23-1.58h-1.81v8.77c0,.81.55,1.21,1.64,1.21h.29v.5h-6.14v-.5h.27c1,0,1.56-.4,1.56-1.21V45.68h-1.81c-.82,0-1.23.52-1.23,1.58v.28H241V41.65h.47v.28c0,1,.41,1.58,1.24,1.58h1.8v-4c0-.83-.52-1.24-1.56-1.24h-.27V37.8h6.14v.44h-.29c-1.09,0-1.64.41-1.64,1.24v4h1.83c.81,0,1.21-.53,1.21-1.58v-.28h.47Z"/><path class="a" d="M185.26,66.3H185c-1.14,0-1.71.43-1.71,1.3v11l-7.5-2.89v6.58c0,.88.57,1.33,1.71,1.33h.34v.5h-6.57v-.5h.31c1.05,0,1.61-.45,1.67-1.33V67.6c0-.87-.56-1.3-1.67-1.3h-.31v-.5h14Zm-4.56,8.86V68.07h-4.93v5.19Z"/><path class="a" d="M197.78,86h-.46v-.28c0-1.06-.43-1.58-1.27-1.58h-9.58v-.5h.31c1.05,0,1.58-.42,1.58-1.26V73.27c0-.82-.53-1.24-1.58-1.24h-.31v-.49h9.58c.84,0,1.27-.53,1.27-1.58v-.28h.46v5.89h-.46v-.28c0-1.05-.42-1.58-1.27-1.58h-5.31v3.07h2.39c.81,0,1.21-.53,1.21-1.58v-.28h.47v5.86h-.47V80.5c0-1.06-.4-1.58-1.21-1.58h-2.39V82h5.31c.85,0,1.27-.53,1.27-1.58v-.32h.46Z"/><path class="a" d="M213.19,84.16H207v-.5h.31c1,0,1.55-.4,1.55-1.2v-8l-4.59,1.79v6.23c0,.8.54,1.2,1.61,1.2h.28v.5H200v-.5h.28c1.08,0,1.61-.4,1.61-1.21V73.24c0-.95-.53-1.36-1.61-1.24L200,72v-.46h6.17V72l-.28,0c-1.07-.12-1.61.29-1.61,1.24v.62l7-2.72V82.45c0,.81.52,1.21,1.58,1.21h.31Z"/><path class="b" d="M188.27,212.59h-6.86v-.49h.31c.87,0,1.31-.27,1.31-.81a.8.8,0,0,0-.28-.52l-7-7.1v7.1c0,.88.57,1.33,1.71,1.33h.31v.49h-6.54v-.49h.31c1.15,0,1.73-.45,1.73-1.33v-14.7c0-.89-.58-1.33-1.73-1.33h-.31v-.5h6.54v.5h-.31c-1.14,0-1.71.44-1.71,1.33v7l4.84-7a1.05,1.05,0,0,0,.22-.59c0-.49-.42-.74-1.24-.74h-.32v-.5h6.83v.5h-.28a2.35,2.35,0,0,0-1.55.5,5.14,5.14,0,0,0-1.08,1.24l-4.62,6.5,7.22,7.66c.91,1,1.63,1.46,2.17,1.46h.31Z"/><path class="b" d="M203,212.59h-6.17v-.49h.31c1,0,1.55-.4,1.55-1.2v-8l-4.59,1.79v6.23q0,1.2,1.62,1.2H196v.49h-6.16v-.49h.27c1.08,0,1.62-.4,1.62-1.21v-9.21c0-1-.54-1.36-1.62-1.24l-.27,0V200H196v.46l-.27,0c-1.08-.12-1.62.29-1.62,1.24v.62l7-2.72v11.31c0,.81.53,1.21,1.58,1.21H203Z"/><path class="b" d="M210.74,212.59h-6.2v-.49h.31c1,0,1.55-.4,1.55-1.21v-9.21c0-.83-.52-1.24-1.55-1.24h-.31V200h6.2v.43h-.28c-1.05,0-1.58.42-1.58,1.24v9.21c0,.81.53,1.21,1.58,1.21h.28Zm-1.86-14.66H206.4v-2.45h2.48Z"/><path class="b" d="M225,218.33h-7.22c-.83,0-1.24.53-1.24,1.58v.28h-.47v-5.86h.47v.28c0,1,.41,1.58,1.24,1.58h2.94v-5.85l-7,2.7V201.65c0-.78-.53-1.18-1.58-1.18h-.28V200H225v.49h-.28c-1.07,0-1.61.42-1.61,1.24V216.6c0,.82.54,1.23,1.61,1.23H225ZM220.75,208v-5.83H216.2v7.59Z"/><path class="b" d="M239.41,212.59h-6.16v-.49h.31c1.05,0,1.58-.4,1.58-1.21v-8l-4.62,1.8v6.23c0,.8.53,1.2,1.61,1.2h.28v.49h-6.17v-.49h.31c1,0,1.58-.4,1.58-1.21v-15c0-.82-.53-1.23-1.58-1.23h-.31v-.44h6.17v.44h-.28c-1.08,0-1.61.41-1.61,1.24v6.38l7-2.72v11.31c0,.81.54,1.21,1.62,1.21h.27Z"/><path class="b" d="M250.36,204h-.47v-.28c0-1.06-.41-1.58-1.23-1.58h-1.81v8.77c0,.81.55,1.21,1.64,1.21h.29v.49h-6.14v-.49h.27c1,0,1.56-.4,1.56-1.21v-8.77h-1.81c-.82,0-1.23.52-1.23,1.58V204H241v-5.89h.47v.28c0,1,.41,1.58,1.24,1.58h1.8v-4c0-.83-.52-1.24-1.56-1.24h-.27v-.44h6.14v.44h-.29c-1.09,0-1.64.41-1.64,1.24v4h1.83c.81,0,1.21-.53,1.21-1.58v-.28h.47Z"/><path class="b" d="M185.26,222.74H185c-1.14,0-1.71.43-1.71,1.3v11l-7.5-2.89v6.58c0,.88.57,1.33,1.71,1.33h.34v.49h-6.57v-.49h.31c1.05,0,1.61-.45,1.67-1.33V224c0-.87-.56-1.3-1.67-1.3h-.31v-.5h14Zm-4.56,8.86v-7.09h-4.93v5.19Z"/><path class="b" d="M197.78,242.46h-.46v-.28c0-1.06-.43-1.59-1.27-1.59h-9.58v-.49h.31c1.05,0,1.58-.42,1.58-1.27v-9.12c0-.83-.53-1.24-1.58-1.24h-.31V228h9.58c.84,0,1.27-.53,1.27-1.58v-.28h.46V232h-.46v-.28c0-1.06-.42-1.58-1.27-1.58h-5.31v3.07h2.39c.81,0,1.21-.53,1.21-1.58v-.28h.47v5.86h-.47v-.28c0-1.06-.4-1.58-1.21-1.58h-2.39v3.1h5.31c.85,0,1.27-.53,1.27-1.58v-.32h.46Z"/><path class="b" d="M213.19,240.59H207v-.49h.31c1,0,1.55-.4,1.55-1.2v-8l-4.59,1.79v6.23c0,.8.54,1.2,1.61,1.2h.28v.49H200v-.49h.28c1.08,0,1.61-.4,1.61-1.21v-9.21c0-1-.53-1.36-1.61-1.24l-.28,0V228h6.17v.46l-.28,0c-1.07-.12-1.61.29-1.61,1.24v.62l7-2.72v11.31c0,.81.52,1.21,1.58,1.21h.31Z"/><path class="b" d="M106.11,229.43s-3.89-33.19-4-33.22l-11.23-5.93c0-.07-14.08-15.7-14.13-15.78a.24.24,0,0,0-.42.15c0,3.58-.75,8.68-1.72,15.59-1.73,12.23-4.37,14.34-5.28,15-4.65,3.26-9.84.09-13.11,3.75-2.73,3.05-1.66,8.11-1.36,9.53,1.61,7.6,7.51,8.67,12.77,16.17,3,4.35,4.25,8.54,5.25,14.73a.24.24,0,0,0,.47,0V232.11a6.49,6.49,0,0,0,0-.77h0l0-.07a6.3,6.3,0,0,0-.27-1.14l-2.29-9.77a.6.6,0,0,1,.74-.72,15,15,0,0,0,5.06.64,24.19,24.19,0,0,0,3.3-.63.61.61,0,0,1,.74.72l-2.33,9.9a5.46,5.46,0,0,0-.2.87l0,.1h0a6.13,6.13,0,0,0-.07.87v39.28a.24.24,0,0,0,.43.14L103.71,238A12.41,12.41,0,0,0,106.11,229.43Zm-37.92-6.91a1.08,1.08,0,0,1-1.72,1.1l-1.18-.91c-3.38-2.59-4.89-3.58-6-5.81a12,12,0,0,1-1.39-5.21.64.64,0,0,1,1.15-.41,22.81,22.81,0,0,0,7.24,6.24A2.27,2.27,0,0,1,67.36,219Zm16.93-5a23.83,23.83,0,0,0,7.28-6.27.65.65,0,0,1,1.16.41,12.16,12.16,0,0,1-1.39,5.21c-1,2.28-4.16,4.33-7.27,6.76a1.09,1.09,0,0,1-1.73-1.1l.88-3.61A2.28,2.28,0,0,1,85.12,217.55Zm2.5,34.15-3.28,4.17a.88.88,0,0,1-1.57-.55V234.41A4.43,4.43,0,0,1,84.39,231l1.2-1a.88.88,0,0,1,1.43.64l.79,20.46A.88.88,0,0,1,87.62,251.7Zm7.15-9.08-3,3.83a.87.87,0,0,1-1.56-.51l-.73-18.65a.9.9,0,0,1,.32-.72l2.49-2a.87.87,0,0,1,1.43.61L95,242A.86.86,0,0,1,94.77,242.62Zm4.35-5.52-.4.51a.87.87,0,0,1-1.56-.48L96,221.94a.88.88,0,0,1,.32-.74l2-1.6a.87.87,0,0,1,1.42.58l1.17,10.72A8.51,8.51,0,0,1,99.12,237.1Z"/><path class="a" d="M106.11,68.05s-3.89-33.18-4-33.22L90.92,28.91c0-.07-14.08-15.71-14.13-15.79a.24.24,0,0,0-.42.16c0,3.57-.75,8.67-1.72,15.59-1.73,12.22-4.37,14.34-5.28,15-4.65,3.26-9.84.09-13.11,3.74-2.73,3-1.66,8.11-1.36,9.53,1.61,7.6,7.51,8.68,12.77,16.17,3,4.35,4.25,8.55,5.25,14.73a.24.24,0,0,0,.47,0V70.73a6.64,6.64,0,0,0,0-.77h0l0-.07a6.3,6.3,0,0,0-.27-1.14L70.77,59a.61.61,0,0,1,.74-.73,14.52,14.52,0,0,0,5.06.64,24.05,24.05,0,0,0,3.3-.62.61.61,0,0,1,.74.72l-2.33,9.9a5,5,0,0,0-.2.87l0,.09h0a6.38,6.38,0,0,0-.07.87V110a.24.24,0,0,0,.43.15l25.29-33.53A12.41,12.41,0,0,0,106.11,68.05Zm-37.92-6.9a1.08,1.08,0,0,1-1.72,1.09l-1.18-.9c-3.38-2.59-4.89-3.59-6-5.81a12.08,12.08,0,0,1-1.39-5.22A.64.64,0,0,1,59,49.9a22.81,22.81,0,0,0,7.24,6.24,2.3,2.3,0,0,1,1.11,1.44Zm16.93-5A23.7,23.7,0,0,0,92.4,49.9a.65.65,0,0,1,1.16.42,12.19,12.19,0,0,1-1.39,5.21c-1,2.28-4.16,4.32-7.27,6.75a1.08,1.08,0,0,1-1.73-1.09l.88-3.61A2.27,2.27,0,0,1,85.12,56.17Zm2.5,34.15-3.28,4.17A.88.88,0,0,1,82.77,94V73a4.43,4.43,0,0,1,1.62-3.42l1.2-1a.88.88,0,0,1,1.43.65l.79,20.45A.86.86,0,0,1,87.62,90.32Zm7.15-9.07-3,3.82a.87.87,0,0,1-1.56-.51l-.73-18.65a.88.88,0,0,1,.32-.71l2.49-2a.88.88,0,0,1,1.43.61L95,80.64A.89.89,0,0,1,94.77,81.25Zm4.35-5.53-.4.51a.87.87,0,0,1-1.56-.48L96,60.56a.88.88,0,0,1,.32-.74l2-1.6a.87.87,0,0,1,1.42.59l1.17,10.71A8.49,8.49,0,0,1,99.12,75.72Z"/></svg>