<?xml version="1.0" encoding="utf-8"?>
<!-- Generator: Adobe Illustrator 25.2.1, SVG Export Plug-In . SVG Version: 6.00 Build 0)  -->
<svg version="1.1" id="Layer_1" xmlns="http://www.w3.org/2000/svg" xmlns:xlink="http://www.w3.org/1999/xlink" x="0px" y="0px"
	 viewBox="0 0 33 33" style="enable-background:new 0 0 33 33;" xml:space="preserve">
<style type="text/css">
	.st0{fill:#231F20;}
</style>
<path class="st0" d="M20,13L19.9,2.4c0-1.3-1.1-2.4-2.4-2.4l-2.4,0c-1.3,0-2.3,1-2.3,2.3L12.9,13L2.3,12.9c-1.3,0-2.3,1-2.3,2.3
	l0,2.4C0,18.9,1.1,20,2.4,20L13,20l0.1,10.6c0,1.3,1.1,2.4,2.4,2.4l2.4,0c1.3,0,2.3-1,2.3-2.3l-0.1-10.6l10.6,0.1
	c1.3,0,2.3-1,2.3-2.3l0-2.4c0-1.3-1.1-2.4-2.4-2.4L20,13z"/>
</svg>
