<?xml version="1.0" encoding="utf-8"?>
<!-- Generator: Adobe Illustrator 25.2.1, SVG Export Plug-In . SVG Version: 6.00 Build 0)  -->
<svg version="1.1" id="Layer_1" xmlns="http://www.w3.org/2000/svg" xmlns:xlink="http://www.w3.org/1999/xlink" x="0px" y="0px"
	 viewBox="0 0 33 33" style="enable-background:new 0 0 33 33;" xml:space="preserve">
<style type="text/css">
	.st0{fill:#231F20;}
</style>
<path class="st0" d="M16.5,33c-2.1,0-3.9-0.3-5.6-1c-1.7-0.7-3-1.8-3.9-3.4c-1-1.6-1.5-3.6-1.5-6.2V10.6C5.5,8,6,6,7,4.4
	c1-1.6,2.3-2.7,3.9-3.4c1.7-0.7,3.5-1,5.6-1c2.1,0,3.9,0.3,5.6,1c1.7,0.7,3,1.8,4,3.4c1,1.6,1.5,3.6,1.5,6.2v11.9
	c0,2.6-0.5,4.6-1.5,6.2c-1,1.6-2.3,2.7-4,3.4C20.4,32.7,18.5,33,16.5,33z M16.5,26.9c1.3,0,2.2-0.4,3-1.1c0.7-0.7,1.1-1.9,1.1-3.4
	V10.6c0-1.6-0.4-2.7-1.1-3.4c-0.7-0.7-1.7-1.1-3-1.1c-1.3,0-2.2,0.4-2.9,1.1c-0.7,0.7-1.1,1.9-1.1,3.4v11.9c0,1.6,0.4,2.7,1.1,3.4
	C14.2,26.6,15.2,26.9,16.5,26.9z"/>
</svg>
