<?xml version="1.0" encoding="utf-8"?>
<!-- Generator: Adobe Illustrator 25.2.1, SVG Export Plug-In . SVG Version: 6.00 Build 0)  -->
<svg version="1.1" id="Layer_1" xmlns="http://www.w3.org/2000/svg" xmlns:xlink="http://www.w3.org/1999/xlink" x="0px" y="0px"
	 viewBox="0 0 33 33" style="enable-background:new 0 0 33 33;" xml:space="preserve">
<style type="text/css">
	.st0{fill:#231F20;}
</style>
<path class="st0" d="M9,33c-0.6,0-1.3-0.2-2-0.6c-0.7-0.4-1.1-0.9-1.1-1.6v-4.4c0-1.2,0.3-2.3,1-3.3c0.7-1,1.6-2,2.6-2.9
	c1.1-0.9,2.2-1.8,3.4-2.7c1.2-0.9,2.4-1.7,3.4-2.6c1.1-0.9,1.9-1.7,2.6-2.6c0.7-0.9,1-1.8,1-2.7c0-0.5-0.1-1-0.3-1.5
	c-0.2-0.5-0.6-0.9-1.1-1.2c-0.5-0.3-1.2-0.5-2-0.5c-0.9,0-1.7,0.3-2.4,0.8c-0.7,0.5-1,1.4-1,2.6c0,0.7-0.3,1.3-1,1.8
	c-0.7,0.5-1.6,0.8-2.7,0.8c-0.9,0-1.6-0.3-2.2-0.8c-0.6-0.5-0.9-1.5-0.9-2.9c0-1.8,0.5-3.4,1.5-4.7c1-1.3,2.2-2.3,3.8-2.9
	c1.6-0.7,3.2-1,4.9-1c1.7,0,3.4,0.4,5,1.1c1.6,0.7,2.9,1.8,3.9,3.1c1,1.4,1.5,3.1,1.5,5.1c0,1.6-0.3,3.1-1,4.4
	c-0.7,1.3-1.5,2.5-2.6,3.5c-1,1-2.2,2-3.3,2.8c-1.2,0.8-2.3,1.6-3.3,2.3c-1,0.7-1.9,1.4-2.6,2c-0.7,0.7-1,1.3-1,2v0.4H25
	c0.6,0,1.1,0.3,1.5,0.9c0.4,0.6,0.6,1.3,0.6,2.1s-0.2,1.5-0.6,2.2C26,32.6,25.5,33,25,33H9z"/>
</svg>
