<?xml version="1.0" encoding="utf-8"?>
<!-- Generator: Adobe Illustrator 25.2.1, SVG Export Plug-In . SVG Version: 6.00 Build 0)  -->
<svg version="1.1" id="Layer_1" xmlns="http://www.w3.org/2000/svg" xmlns:xlink="http://www.w3.org/1999/xlink" x="0px" y="0px"
	 viewBox="0 0 33 33" style="enable-background:new 0 0 33 33;" xml:space="preserve">
<style type="text/css">
	.st0{fill:#231F20;}
</style>
<path class="st0" d="M16.5,33c-2.1,0-3.9-0.3-5.6-0.9c-1.7-0.6-3-1.6-4-3c-1-1.4-1.5-3.1-1.5-5.4v-0.5c0-2.3,0.5-4.1,1.5-5.5
	c1-1.4,2.4-2.3,4-2.9c-1.3-0.4-2.4-1.2-3.2-2.4C7,11.3,6.6,9.8,6.6,8c0-1.9,0.4-3.4,1.3-4.6s2-2,3.5-2.6C12.9,0.3,14.6,0,16.5,0
	c1.9,0,3.6,0.3,5.1,0.8c1.5,0.6,2.6,1.4,3.5,2.6s1.3,2.7,1.3,4.6c0,1.9-0.4,3.3-1.2,4.5c-0.8,1.1-1.9,1.9-3.2,2.4
	c1.7,0.6,3,1.5,4,2.9c1,1.4,1.5,3.2,1.5,5.5v0.5c0,2.2-0.5,4-1.5,5.4c-1,1.4-2.3,2.3-3.9,3C20.4,32.7,18.6,33,16.5,33z M16.5,27.4
	c1.3,0,2.3-0.4,3-1.1c0.7-0.7,1-1.9,1-3.4v-1c0-1.5-0.4-2.5-1.1-3.2c-0.7-0.7-1.7-1-2.9-1s-2.2,0.3-3,1c-0.7,0.7-1.1,1.8-1.1,3.2v1
	c0,1.6,0.4,2.7,1.1,3.4C14.3,27.1,15.3,27.4,16.5,27.4z M16.5,12.1c1,0,1.8-0.2,2.4-0.7c0.6-0.5,0.8-1.3,0.8-2.5
	c0-1.1-0.3-2-0.8-2.5c-0.6-0.5-1.3-0.8-2.4-0.8c-1,0-1.8,0.3-2.4,0.8c-0.6,0.5-0.8,1.4-0.8,2.5c0,1.2,0.3,2,0.8,2.5
	C14.7,11.9,15.5,12.1,16.5,12.1z"/>
</svg>
