<?xml version="1.0" encoding="utf-8"?>
<!-- Generator: Adobe Illustrator 25.2.1, SVG Export Plug-In . SVG Version: 6.00 Build 0)  -->
<svg version="1.1" id="Layer_1" xmlns="http://www.w3.org/2000/svg" xmlns:xlink="http://www.w3.org/1999/xlink" x="0px" y="0px"
	 viewBox="0 0 33 33" style="enable-background:new 0 0 33 33;" xml:space="preserve">
<style type="text/css">
	.st0{fill:#231F20;}
</style>
<path class="st0" d="M16.1,33c-1.9,0-3.5-0.3-4.8-0.8c-1.3-0.5-2.4-1.2-3.3-2c-0.9-0.8-1.5-1.7-1.9-2.7c-0.4-1-0.6-1.9-0.6-2.9
	c0-1.1,0.3-1.8,0.8-2.2s1.4-0.6,2.5-0.6c1,0,1.8,0.2,2.5,0.5c0.7,0.3,1.1,1,1.1,2.1c0,0.6,0.2,1,0.5,1.4c0.4,0.4,0.8,0.7,1.4,0.9
	c0.6,0.2,1.2,0.3,1.9,0.3c1.3,0,2.3-0.4,3.1-1.1s1.1-1.9,1.1-3.4v-4c-0.7,0.8-1.6,1.3-2.5,1.6c-1,0.3-2,0.4-3.1,0.4
	c-1.7,0-3.3-0.3-4.7-0.9C8.8,19,7.6,18,6.8,16.6c-0.9-1.4-1.3-3.3-1.3-5.6v-0.4C5.5,8,6,6,7,4.4c1-1.6,2.3-2.7,3.9-3.4
	c1.7-0.7,3.5-1,5.6-1c2.1,0,3.9,0.3,5.6,1c1.7,0.7,3,1.8,4,3.4c1,1.6,1.5,3.6,1.5,6.2v11.9c0,2.6-0.5,4.6-1.5,6.2
	c-1,1.6-2.4,2.7-4.1,3.4C20.2,32.7,18.2,33,16.1,33z M16.5,15c1.2,0,2.2-0.3,2.9-1c0.7-0.6,1.1-1.7,1.1-3.2v-0.8
	c0-1.6-0.4-2.7-1.1-3.4c-0.7-0.7-1.7-1.1-3-1.1c-1.3,0-2.2,0.4-2.9,1.1c-0.7,0.7-1.1,1.8-1.1,3.4v0.4c0,1.6,0.4,2.8,1.1,3.5
	C14.2,14.7,15.2,15,16.5,15z"/>
</svg>
