<?xml version="1.0" encoding="utf-8"?>
<!-- Generator: Adobe Illustrator 25.2.1, SVG Export Plug-In . SVG Version: 6.00 Build 0)  -->
<svg version="1.1" id="Layer_1" xmlns="http://www.w3.org/2000/svg" xmlns:xlink="http://www.w3.org/1999/xlink" x="0px" y="0px"
	 viewBox="0 0 33 33" style="enable-background:new 0 0 33 33;" xml:space="preserve">
<style type="text/css">
	.st0{fill:#231F20;}
</style>
<path class="st0" d="M16.5,0C7.5,0,0.2,7.4,0.2,16.5C0.2,25.6,7.5,33,16.5,33c3.2,0,6.3-0.9,8.9-2.7c0.8-0.5,1-1.6,0.4-2.4l-0.7-0.8
	c-0.5-0.6-1.4-0.8-2.1-0.3c-1.9,1.3-4.2,1.9-6.5,1.9c-6.7,0-12.1-5.5-12.1-12.2S9.8,4.3,16.5,4.3c6.6,0,12.1,3.8,12.1,10.6
	c0,2.6-1.4,5.3-3.8,5.6c-1.1,0-1.1-0.9-0.9-2l1.5-8.1c0.2-1-0.6-1.9-1.5-1.9h-3c-0.5,0-0.8,0.3-0.9,0.8v0c-1-1.2-2.7-1.4-3.9-1.4
	C11.2,7.9,7,12,7,18c0,4.3,2.4,7,6.3,7c1.8,0,3.8-1,4.9-2.6c0.6,2.3,2.7,2.3,4.6,2.3c7.2,0,9.9-4.8,9.9-9.8C32.8,5.9,25.6,0,16.5,0z
	 M15.1,20.3c-1.5,0-2.4-1-2.4-2.7c0-3,2-4.8,3.8-4.8c1.5,0,2.3,1,2.3,2.7C18.9,18.4,16.7,20.3,15.1,20.3z"/>
</svg>
