<?xml version="1.0" encoding="utf-8"?>
<!-- Generator: Adobe Illustrator 25.2.1, SVG Export Plug-In . SVG Version: 6.00 Build 0)  -->
<svg version="1.1" id="Layer_1" xmlns="http://www.w3.org/2000/svg" xmlns:xlink="http://www.w3.org/1999/xlink" x="0px" y="0px"
	 viewBox="0 0 33 33" style="enable-background:new 0 0 33 33;" xml:space="preserve">
<style type="text/css">
	.st0{fill:#231F20;}
</style>
<path class="st0" d="M16.5,11.6L9,4.1C8,3.2,6.5,3.2,5.6,4.1L3.9,5.8C3,6.7,3,8.2,3.9,9.1l7.5,7.4L3.9,24c-0.9,0.9-0.9,2.4,0,3.3
	l1.7,1.7c0.9,0.9,2.4,0.9,3.4,0l7.5-7.4l7.5,7.4c0.9,0.9,2.4,0.9,3.4,0l1.7-1.7c0.9-0.9,0.9-2.4,0-3.3l-7.5-7.4l7.5-7.4
	c0.9-0.9,0.9-2.4,0-3.3l-1.7-1.7c-0.9-0.9-2.4-0.9-3.4,0L16.5,11.6z"/>
</svg>
