<?xml version="1.0" encoding="utf-8"?>
<!-- Generator: Adobe Illustrator 25.2.1, SVG Export Plug-In . SVG Version: 6.00 Build 0)  -->
<svg version="1.1" id="Layer_1" xmlns="http://www.w3.org/2000/svg" xmlns:xlink="http://www.w3.org/1999/xlink" x="0px" y="0px"
	 viewBox="0 0 33 33" style="enable-background:new 0 0 33 33;" xml:space="preserve">
<style type="text/css">
	.st0{fill:#231F20;}
</style>
<path class="st0" d="M25.5,18.5L25.5,18.5C24.1,7.3,24.1,7.3,23.9,7.2c0,0,0,0,0,0c-2.4-1.2-4.5-2.9-6.3-4.9c-0.9-1-1.7-1.9-1.8-2.1
	c-0.2-0.2-0.6-0.3-0.8,0c0,0-0.1,0.1-0.2,0.2c0,0.1,0,0.2,0,0.2c0,1.1-0.2,2.6-0.5,4.6l-0.1,0.4c-0.4,2.5-0.9,4.1-1.5,4.6
	c-0.6,0.4-1.3,0.5-2,0.5c-0.8,0-1.7,0.1-2.4,0.8c-0.7,0.8-0.9,2-0.6,3.6C8,16.7,9,17.6,9.9,18.4c0.7,0.6,1.3,1.2,2,2.1
	c1,1.4,1.3,2.8,1.6,4.6c0.1,0.3,0.4,0.5,0.7,0.4c0,0,0.2,0,0.3-0.2c0.1-0.1,0.1-0.3,0.1-0.3l0-5.7c0-0.1,0-0.2,0-0.4
	c0-0.2-0.1-0.3-0.1-0.4L14,16c0.4,0.1,0.9,0.1,1.4,0.1c0.2,0,0.5-0.1,0.7-0.1l-0.6,2.7c0,0.1-0.1,0.2-0.1,0.4c0,0.1,0,0.2,0,0.4
	v12.9l0,0.3c0,0.1,0,0.2,0.1,0.3c0.1,0.1,0.3,0.2,0.5,0.2c0.1,0,0.2-0.1,0.3-0.1l8.5-11.2C25.3,20.8,25.6,19.6,25.5,18.5z
	 M12.3,16.7c-0.1,0-0.2,0-0.3-0.1l-0.4-0.3c-1.1-0.8-1.6-1.2-2-1.9c-0.3-0.5-0.4-1.1-0.5-1.7c0-0.1,0.1-0.2,0.2-0.2
	c0.1,0,0.1,0,0.1,0.1c0.6,0.8,1.4,1.5,2.4,2c0.2,0.1,0.3,0.3,0.4,0.5l0.3,1.2C12.6,16.5,12.4,16.7,12.3,16.7z M17.4,16.3l0.3-1.2
	c0-0.2,0.2-0.4,0.4-0.5c0.6-0.4,1.7-1.2,2.4-2.1c0.1-0.1,0.2-0.1,0.3,0c0.1,0,0.1,0.1,0.1,0.2c0,0.6-0.2,1.2-0.5,1.7
	c-0.3,0.7-1.4,1.4-2.4,2.2c-0.2,0.1-0.4,0.1-0.5-0.1C17.4,16.5,17.4,16.4,17.4,16.3z M18.9,25.9l-1.1,1.4c-0.1,0.1-0.3,0.1-0.4,0
	c-0.1,0-0.1-0.1-0.1-0.2v-6.9c0-0.4,0.2-0.8,0.5-1.1l0.4-0.3c0.1-0.1,0.3-0.1,0.4,0c0,0,0.1,0.1,0.1,0.2l0.3,6.7
	C19,25.7,18.9,25.9,18.9,25.9z M21.2,22.9L21.2,22.9l-1,1.2c-0.1,0.1-0.3,0.1-0.4,0.1c-0.1-0.1-0.1-0.1-0.1-0.2l-0.2-6.1
	c0-0.1,0-0.2,0.1-0.2l0.8-0.7c0.1-0.1,0.3-0.1,0.4,0c0,0,0.1,0.1,0.1,0.2l0.4,5.5C21.3,22.8,21.3,22.8,21.2,22.9z M22.7,21.1
	l-0.1,0.2c-0.1,0.1-0.3,0.1-0.4,0.1c-0.1-0.1-0.1-0.1-0.1-0.2l-0.4-5c0-0.1,0-0.2,0.1-0.2l0.7-0.5c0.1-0.1,0.3-0.1,0.4,0
	c0,0,0.1,0.1,0.1,0.2l0.4,3.6C23.3,19.8,23.1,20.5,22.7,21.1z"/>
</svg>
