<?xml version="1.0" encoding="utf-8"?>
<!-- Generator: Adobe Illustrator 25.2.1, SVG Export Plug-In . SVG Version: 6.00 Build 0)  -->
<svg version="1.1" id="Layer_1" xmlns="http://www.w3.org/2000/svg" xmlns:xlink="http://www.w3.org/1999/xlink" x="0px" y="0px"
	 viewBox="0 0 33 33" style="enable-background:new 0 0 33 33;" xml:space="preserve">
<style type="text/css">
	.st0{fill:#231F20;}
</style>
<path class="st0" d="M15.8,33c-0.9,0-1.7-0.2-2.4-0.5c-0.7-0.4-1.1-0.9-1.1-1.6V8L11,8.8C10.7,8.9,10.5,9,10.3,9
	C10.2,9.1,10,9.1,9.8,9.1c-0.7,0-1.2-0.3-1.6-0.9C7.8,7.7,7.6,7,7.6,6.4c0-0.5,0.1-0.9,0.3-1.3c0.2-0.4,0.5-0.8,1-1l5.9-3.6
	c0.2-0.1,0.4-0.2,0.6-0.2c0.2,0,0.5-0.1,0.7-0.1c0.7,0,1.4,0.2,2.1,0.6c0.7,0.4,1,0.9,1,1.6v28.6c0,0.7-0.4,1.3-1.1,1.6
	C17.4,32.8,16.6,33,15.8,33z"/>
</svg>
