<?xml version="1.0" encoding="utf-8"?>
<!-- Generator: Adobe Illustrator 25.2.1, SVG Export Plug-In . SVG Version: 6.00 Build 0)  -->
<svg version="1.1" id="Layer_1" xmlns="http://www.w3.org/2000/svg" xmlns:xlink="http://www.w3.org/1999/xlink" x="0px" y="0px"
	 viewBox="0 0 33 33" style="enable-background:new 0 0 33 33;" xml:space="preserve">
<style type="text/css">
	.st0{fill:#231F20;}
</style>
<path class="st0" d="M20.9,33c-0.9,0-1.7-0.2-2.4-0.5c-0.7-0.4-1.1-0.9-1.1-1.6v-4.8H6.8c-0.7,0-1.2-0.2-1.7-0.6
	c-0.5-0.4-0.7-1-0.7-1.8c0-0.2,0-0.4,0.1-0.6c0.1-0.2,0.1-0.5,0.3-0.7L15.3,1.9c0.3-0.7,0.8-1.1,1.3-1.4c0.5-0.3,1.1-0.4,1.6-0.4
	c0.4,0,0.9,0.1,1.4,0.3c0.5,0.2,1,0.5,1.4,0.9c0.4,0.4,0.6,0.9,0.6,1.4c0,0.2-0.1,0.5-0.2,0.9l-8,16h3.9v-3.2c0-0.8,0.4-1.3,1.1-1.6
	c0.7-0.3,1.5-0.5,2.4-0.5c0.9,0,1.7,0.2,2.4,0.5c0.7,0.3,1.1,0.9,1.1,1.6v3.2h1.9c0.7,0,1.3,0.3,1.6,1c0.4,0.7,0.5,1.4,0.5,2.2
	c0,0.8-0.2,1.6-0.7,2.2c-0.5,0.7-0.9,1-1.5,1h-1.9v4.8c0,0.7-0.4,1.3-1.1,1.6C22.6,32.8,21.8,33,20.9,33z"/>
</svg>
