<?xml version="1.0" encoding="utf-8"?>
<!-- Generator: Adobe Illustrator 25.2.1, SVG Export Plug-In . SVG Version: 6.00 Build 0)  -->
<svg version="1.1" id="Layer_1" xmlns="http://www.w3.org/2000/svg" xmlns:xlink="http://www.w3.org/1999/xlink" x="0px" y="0px"
	 viewBox="0 0 33 33" style="enable-background:new 0 0 33 33;" xml:space="preserve">
<style type="text/css">
	.st0{fill:#231F20;}
</style>
<path class="st0" d="M3.7,21.5c-0.8,0.8-1.2,1.8-1.2,2.9v2.9l-2,3.6l2,2.1L6,31h2.9c1.1,0,2.1-0.4,2.9-1.2l8.1-8.2l-8.1-8.2
	L3.7,21.5z M31.2,1.8c-2.4-2.4-6.3-2.4-8.6,0l-4.9,5L16.8,6c-0.6-0.6-1.6-0.6-2.2,0l-2.6,2.6c-0.6,0.6-0.6,1.6,0,2.2l10.3,10.4
	c0.6,0.6,1.6,0.6,2.2,0l2.6-2.6c0.6-0.6,0.6-1.6,0-2.2l-0.8-0.8l4.9-5C33.6,8.2,33.6,4.3,31.2,1.8z"/>
</svg>
