<?xml version="1.0" encoding="utf-8"?>
<!-- Generator: Adobe Illustrator 25.2.1, SVG Export Plug-In . SVG Version: 6.00 Build 0)  -->
<svg version="1.1" id="Layer_1" xmlns="http://www.w3.org/2000/svg" xmlns:xlink="http://www.w3.org/1999/xlink" x="0px" y="0px"
	 viewBox="0 0 33 33" style="enable-background:new 0 0 33 33;" xml:space="preserve">
<style type="text/css">
	.st0{fill:#231F20;}
</style>
<g>
	<path class="st0" d="M31.4,8.9h-2.9v15.2h2.9c0.9,0,1.6-0.7,1.6-1.6V10.6C33,9.7,32.3,8.9,31.4,8.9z"/>
	<path class="st0" d="M4.5,8.9H1.6C0.7,8.9,0,9.7,0,10.6v11.9c0,0.9,0.7,1.6,1.6,1.6h2.9V8.9z"/>
	<path class="st0" d="M24.1,6.8H8.9c-1.2,0-2.1,0.9-2.1,2.1v15.3c0,1.2,0.9,2.1,2.1,2.1h15.3c1.2,0,2.1-0.9,2.1-2.1V8.9
		C26.2,7.7,25.3,6.8,24.1,6.8z M9.8,8.6h13.5c0.7,0,1.2,0.5,1.2,1.2v10.4h-0.6c-0.3,0-0.7-0.1-0.9-0.4l-2.7-2.7
		c-0.5-0.5-1.3-0.5-1.8,0l-2.7,2.7c-0.2,0.2-0.6,0.4-0.9,0.4H9.8c-0.7,0-1.3-0.6-1.3-1.3V9.8C8.6,9.1,9.1,8.6,9.8,8.6z"/>
	<circle class="st0" cx="15.2" cy="13" r="1.8"/>
</g>
</svg>
