<?xml version="1.0" encoding="utf-8"?>
<!-- Generator: Adobe Illustrator 25.2.1, SVG Export Plug-In . SVG Version: 6.00 Build 0)  -->
<svg version="1.1" id="Layer_1" xmlns="http://www.w3.org/2000/svg" xmlns:xlink="http://www.w3.org/1999/xlink" x="0px" y="0px"
	 viewBox="0 0 33 33" style="enable-background:new 0 0 33 33;" xml:space="preserve">
<style type="text/css">
	.st0{fill:#231F20;}
</style>
<path class="st0" d="M22.6,27.7c0.6-0.6,0.6-1.6,0-2.2L22,24.8c-0.6-0.6-1.6-0.6-2.2,0l-1.5,1.7v-8.1h8l-1.7,1.5
	c-0.6,0.6-0.6,1.6,0,2.2l0.7,0.7c0.6,0.6,1.6,0.6,2.2,0l4.7-4.8c0.8-0.8,0.8-2.1,0-2.9l-4.7-4.8c-0.6-0.6-1.6-0.6-2.2,0L24.6,11
	c-0.6,0.6-0.6,1.6,0,2.2l1.7,1.5h-8V6.6l1.5,1.7c0.6,0.6,1.6,0.6,2.2,0l0.7-0.7c0.6-0.6,0.6-1.6,0-2.2l-4.7-4.8
	c-0.8-0.8-2.1-0.8-2.9,0l-4.7,4.8C9.8,6,9.8,7,10.4,7.6L11,8.3c0.6,0.6,1.6,0.6,2.2,0l1.5-1.7v8.1h-8l1.7-1.5C9,12.6,9,11.6,8.4,11
	l-0.7-0.7c-0.6-0.6-1.6-0.6-2.2,0l-4.7,4.8C0,15.9,0,17.2,0.8,18l4.7,4.8c0.6,0.6,1.6,0.6,2.2,0l0.7-0.7c0.6-0.6,0.6-1.6,0-2.2
	l-1.7-1.5h8v8.1l-1.5-1.7c-0.6-0.6-1.6-0.6-2.2,0l-0.7,0.7c-0.6,0.6-0.6,1.6,0,2.2l4.7,4.8c0.8,0.8,2.1,0.8,2.9,0L22.6,27.7z"/>
</svg>
