<?xml version="1.0" encoding="utf-8"?>
<!-- Generator: Adobe Illustrator 25.2.1, SVG Export Plug-In . SVG Version: 6.00 Build 0)  -->
<svg version="1.1" id="Layer_1" xmlns="http://www.w3.org/2000/svg" xmlns:xlink="http://www.w3.org/1999/xlink" x="0px" y="0px"
	 viewBox="0 0 33 33" style="enable-background:new 0 0 33 33;" xml:space="preserve">
<style type="text/css">
	.st0{fill:#231F20;}
</style>
<path class="st0" d="M16.2,3.5c-1-1-2.6-1-3.6,0L5,11.1c-0.4,0.4-0.4,1.1,0,1.5l1.4,1.5c0.4,0.4,1,0.4,1.4,0l6.5-6.6L15.8,9
	l-9.6,9.8c-3.3,3.3-5.4,7.7-6,12.6l0,0c-0.1,1,0.7,1.8,1.7,1.7c4.8-0.5,9.2-2.7,12.4-6l12.5-12.7L21.6,9L16.2,3.5z M31.9,4.8
	l-3.8-3.9c-1.2-1.2-3.1-1.2-4.3,0l-3.6,3.6l8.1,8.3l3.6-3.6C33.1,8,33.1,6,31.9,4.8z"/>
</svg>
