<?xml version="1.0" encoding="utf-8"?>
<!-- Generator: Adobe Illustrator 25.2.1, SVG Export Plug-In . SVG Version: 6.00 Build 0)  -->
<svg version="1.1" id="Layer_1" xmlns="http://www.w3.org/2000/svg" xmlns:xlink="http://www.w3.org/1999/xlink" x="0px" y="0px"
	 viewBox="0 0 33 33" style="enable-background:new 0 0 33 33;" xml:space="preserve">
<style type="text/css">
	.st0{fill:#231F20;}
</style>
<path class="st0" d="M18.4,1.4c-0.5-1.9-3.1-1.9-3.7,0c-3,10.2-9.3,12.9-9.3,20.1c0,6.3,5,11.5,11.2,11.5s11.2-5.1,11.2-11.5
	C27.7,14.3,21.3,11.7,18.4,1.4z M16.5,28.9c-3.9,0-7.1-3.2-7.1-7.2c0-0.6,0.5-1,1-1c0.6,0,1,0.5,1,1c0,2.8,2.3,5.2,5.1,5.2
	c0.6,0,1,0.5,1,1S17.1,28.9,16.5,28.9z"/>
</svg>
