<?xml version="1.0" encoding="utf-8"?>
<!-- Generator: Adobe Illustrator 25.2.1, SVG Export Plug-In . SVG Version: 6.00 Build 0)  -->
<svg version="1.1" id="Layer_1" xmlns="http://www.w3.org/2000/svg" xmlns:xlink="http://www.w3.org/1999/xlink" x="0px" y="0px"
	 viewBox="0 0 33 33" style="enable-background:new 0 0 33 33;" xml:space="preserve">
<style type="text/css">
	.st0{fill:#231F20;}
</style>
<path class="st0" d="M26.6,16.3h-1.4c0-0.9,0-3.6,0-3.6c0-4.9-3.9-8.8-8.7-8.8c-4.8,0-8.7,4-8.7,8.8v3.6H6.4c-1.5,0-2.8,1.3-2.8,2.8
	v11.2c0,1.5,1.2,2.8,2.8,2.8h20.2c1.5,0,2.8-1.3,2.8-2.8V19.1C29.4,17.5,28.1,16.3,26.6,16.3z M12.4,12.7c0-2.3,1.9-4.2,4.1-4.2
	s4.1,1.9,4.1,4.2v3.6h-8.3V12.7z"/>
</svg>
