<?xml version="1.0" encoding="utf-8"?>
<!-- Generator: Adobe Illustrator 25.2.1, SVG Export Plug-In . SVG Version: 6.00 Build 0)  -->
<svg version="1.1" id="Layer_1" xmlns="http://www.w3.org/2000/svg" xmlns:xlink="http://www.w3.org/1999/xlink" x="0px" y="0px"
	 viewBox="0 0 33 33" style="enable-background:new 0 0 33 33;" xml:space="preserve">
<style type="text/css">
	.st0{fill:#231F20;}
</style>
<path class="st0" d="M25.7,4.1h-5.1c0-2.3-1.8-4.1-4.1-4.1s-4.1,1.8-4.1,4.1H7.3c-1.7,0-3.1,1.4-3.1,3.1v22.7c0,1.7,1.4,3.1,3.1,3.1
	h18.3c1.7,0,3.1-1.4,3.1-3.1V7.2C28.7,5.5,27.3,4.1,25.7,4.1z M16.5,2.6c0.8,0,1.5,0.7,1.5,1.5s-0.7,1.5-1.5,1.5S15,5,15,4.1
	S15.7,2.6,16.5,2.6z M22.5,24.2c0.4,0.4,0.4,1.1,0,1.6l-0.8,0.8c-0.4,0.4-1.2,0.4-1.6,0L16.5,23l-3.6,3.6c-0.4,0.4-1.2,0.4-1.6,0
	l-0.8-0.8c-0.4-0.4-0.4-1.1,0-1.6l3.6-3.6l-3.6-3.6c-0.4-0.4-0.4-1.1,0-1.6l0.8-0.8c0.4-0.4,1.2-0.4,1.6,0l3.6,3.6l3.6-3.6
	c0.4-0.4,1.2-0.4,1.6,0l0.8,0.8c0.4,0.4,0.4,1.1,0,1.6l-3.6,3.6L22.5,24.2z"/>
</svg>
