<?xml version="1.0" encoding="utf-8"?>
<!-- Generator: Adobe Illustrator 25.2.1, SVG Export Plug-In . SVG Version: 6.00 Build 0)  -->
<svg version="1.1" id="Layer_1" xmlns="http://www.w3.org/2000/svg" xmlns:xlink="http://www.w3.org/1999/xlink" x="0px" y="0px"
	 viewBox="0 0 33 33" style="enable-background:new 0 0 33 33;" xml:space="preserve">
<style type="text/css">
	.st0{fill:#231F20;}
</style>
<path class="st0" d="M10.3,26.8H3.6c-0.9,0-1.5-0.7-1.5-1.5V3.6c0-0.9,0.7-1.5,1.5-1.5h5.2c0.7-1.2,2-2.1,3.6-2.1s2.9,0.8,3.6,2.1
	h5.2c0.9,0,1.5,0.7,1.5,1.5v4.6h-8.8c-2,0-3.6,1.6-3.6,3.6V26.8z M10.8,4.1c0,0.9,0.7,1.5,1.5,1.5s1.5-0.7,1.5-1.5s-0.7-1.5-1.5-1.5
	S10.8,3.3,10.8,4.1z M30.9,18.6v12.9c0,0.9-0.7,1.5-1.5,1.5H13.9c-0.9,0-1.5-0.7-1.5-1.5V11.9c0-0.9,0.7-1.5,1.5-1.5h8.8V17
	c0,0.9,0.7,1.5,1.5,1.5H30.9z M30.9,16.5h-6.2v-6.2h0.4c0.4,0,0.8,0.2,1.1,0.5l4.2,4.2c0.3,0.3,0.5,0.7,0.5,1.1V16.5z"/>
</svg>
