<?xml version="1.0" encoding="utf-8"?>
<!-- Generator: Adobe Illustrator 25.2.1, SVG Export Plug-In . SVG Version: 6.00 Build 0)  -->
<svg version="1.1" id="Layer_1" xmlns="http://www.w3.org/2000/svg" xmlns:xlink="http://www.w3.org/1999/xlink" x="0px" y="0px"
	 viewBox="0 0 33 33" style="enable-background:new 0 0 33 33;" xml:space="preserve">
<style type="text/css">
	.st0{fill:#231F20;}
</style>
<path class="st0" d="M17.1,33c0.7,0,1.2-0.6,1.2-1.2V6.5l1.5,1.7c0.6,0.6,1.6,0.6,2.2,0l0.7-0.7c0.6-0.6,0.6-1.6,0-2.2L18,0.6
	c-0.8-0.8-2.1-0.8-2.9,0l-4.8,4.7c-0.6,0.6-0.6,1.6,0,2.2L11,8.2c0.6,0.6,1.6,0.6,2.2,0l1.5-1.7v25.3c0,0.7,0.6,1.2,1.2,1.2H17.1z"
	/>
</svg>
