<?xml version="1.0" encoding="utf-8"?>
<!-- Generator: Adobe Illustrator 25.2.1, SVG Export Plug-In . SVG Version: 6.00 Build 0)  -->
<svg version="1.1" id="Layer_1" xmlns="http://www.w3.org/2000/svg" xmlns:xlink="http://www.w3.org/1999/xlink" x="0px" y="0px"
	 viewBox="0 0 33 33" style="enable-background:new 0 0 33 33;" xml:space="preserve">
<style type="text/css">
	.st0{fill:#231F20;}
</style>
<path class="st0" d="M0,17.1c0,0.7,0.6,1.2,1.2,1.2h25.3l-1.7,1.5c-0.6,0.6-0.6,1.6,0,2.2l0.7,0.7c0.6,0.6,1.6,0.6,2.2,0l4.7-4.8
	c0.8-0.8,0.8-2.1,0-2.9l-4.7-4.8c-0.6-0.6-1.6-0.6-2.2,0L24.8,11c-0.6,0.6-0.6,1.6,0,2.2l1.7,1.5H1.2C0.6,14.7,0,15.3,0,16L0,17.1z"
	/>
</svg>
