<svg xmlns="http://www.w3.org/2000/svg" viewBox="0 0 33 33"><path d="M29.36,12.94a1,1,0,0,1-1.1-.68A12.32,12.32,0,0,0,16.5,4.06h0A12.34,12.34,0,0,0,4.76,12.2a1,1,0,0,1-1.21.59l-1.92-.56A1,1,0,0,1,1,11,16.19,16.19,0,0,1,16.5.06h0a16.27,16.27,0,0,1,11.94,5V3a1,1,0,0,1,1-1h2a1,1,0,0,1,1,1v8.64a1,1,0,0,1-.85,1Z"/><path d="M3.64,20.06a1,1,0,0,1,1.1.68,12.32,12.32,0,0,0,11.76,8.2h0A12.34,12.34,0,0,0,28.24,20.8a1,1,0,0,1,1.21-.59l1.92.56A1,1,0,0,1,32,22,16.19,16.19,0,0,1,16.5,32.94h0a16.27,16.27,0,0,1-11.94-5V30a1,1,0,0,1-1,1h-2a1,1,0,0,1-1-1V21.38a1,1,0,0,1,.85-1Z"/></svg>