<?xml version="1.0" encoding="utf-8"?>
<!-- Generator: Adobe Illustrator 25.2.1, SVG Export Plug-In . SVG Version: 6.00 Build 0)  -->
<svg version="1.1" id="Layer_1" xmlns="http://www.w3.org/2000/svg" xmlns:xlink="http://www.w3.org/1999/xlink" x="0px" y="0px"
	 viewBox="0 0 33 33" style="enable-background:new 0 0 33 33;" xml:space="preserve">
<style type="text/css">
	.st0{fill:#231F20;}
</style>
<g id="history_2_">
	<path class="st0" d="M0,16.5C0,7.4,7.4,0,16.5,0c4.4,0,8.4,1.7,11.4,4.6l3.3-3.3C31.9,0.6,33,1.1,33,2.1v9.7c0,0.6-0.5,1.1-1.1,1.1
		h-9.7c-0.9,0-1.4-1.1-0.8-1.8l3.4-3.4c-2.2-2.1-5.1-3.3-8.4-3.3C9.7,4.3,4.3,9.8,4.3,16.5c0,6.8,5.5,12.2,12.2,12.2
		c2.9,0,5.5-1,7.6-2.6c0.6-0.5,1.5-0.4,2.1,0.1L27,27c0.7,0.7,0.6,1.8-0.1,2.4C24,31.7,20.4,33,16.5,33C7.4,33,0,25.6,0,16.5z"/>
</g>
</svg>
