<svg xmlns="http://www.w3.org/2000/svg" viewBox="0 0 33 33"><path d="M33,18V15a1,1,0,0,0-1-1H30.05a1,1,0,0,1-1-.78,13.14,13.14,0,0,0-1.37-3.3,1,1,0,0,1,.14-1.23l1.38-1.38a1,1,0,0,0,0-1.42L27.11,3.77a1,1,0,0,0-1.42,0L24.31,5.15a1,1,0,0,1-1.23.14,13.14,13.14,0,0,0-3.3-1.37A1,1,0,0,1,19,3V1a1,1,0,0,0-1-1H15a1,1,0,0,0-1,1V3a1,1,0,0,1-.78,1,13.14,13.14,0,0,0-3.3,1.37,1,1,0,0,1-1.23-.14L7.31,3.77a1,1,0,0,0-1.42,0L3.77,5.89a1,1,0,0,0,0,1.42L5.15,8.69a1,1,0,0,1,.14,1.23,13.14,13.14,0,0,0-1.37,3.3A1,1,0,0,1,3,14H1a1,1,0,0,0-1,1v3a1,1,0,0,0,1,1H3a1,1,0,0,1,1,.78,13.14,13.14,0,0,0,1.37,3.3,1,1,0,0,1-.14,1.23L3.77,25.69a1,1,0,0,0,0,1.42l2.12,2.12a1,1,0,0,0,1.42,0l1.38-1.38a1,1,0,0,1,1.23-.14,13.14,13.14,0,0,0,3.3,1.37,1,1,0,0,1,.78,1V32a1,1,0,0,0,1,1h3a1,1,0,0,0,1-1V30.05a1,1,0,0,1,.78-1,13.14,13.14,0,0,0,3.3-1.37,1,1,0,0,1,1.23.14l1.38,1.38a1,1,0,0,0,1.42,0l2.12-2.12a1,1,0,0,0,0-1.42l-1.38-1.38a1,1,0,0,1-.14-1.23,13.14,13.14,0,0,0,1.37-3.3,1,1,0,0,1,1-.78H32A1,1,0,0,0,33,18ZM16.5,25.5a9,9,0,1,1,9-9A9,9,0,0,1,16.5,25.5Z"/></svg>