<svg xmlns="http://www.w3.org/2000/svg" viewBox="0 0 33 33"><path d="M32.06,22.14H16.27a6.64,6.64,0,0,0-12.67,0H1a1,1,0,0,0-1,1v2a1,1,0,0,0,1,1H3.6a6.64,6.64,0,0,0,12.67,0H32.06a1,1,0,0,0,1-1v-2A1,1,0,0,0,32.06,22.14ZM9.94,26.78a2.65,2.65,0,1,1,2.64-2.64A2.65,2.65,0,0,1,9.94,26.78Z"/><path d="M32.06,6.92h-2.6a6.65,6.65,0,0,0-12.68,0H1a1,1,0,0,0-1,1v2a1,1,0,0,0,1,1H16.78a6.65,6.65,0,0,0,12.68,0h2.6a1,1,0,0,0,1-1v-2A1,1,0,0,0,32.06,6.92Zm-8.94,4.64a2.65,2.65,0,1,1,2.65-2.64A2.64,2.64,0,0,1,23.12,11.56Z"/></svg>