<svg xmlns="http://www.w3.org/2000/svg" viewBox="0 0 33 33"><path d="M29,15h3.5a.5.5,0,0,1,.5.5v2a.5.5,0,0,1-.5.5H29a.5.5,0,0,1-.5-.5v-2A.5.5,0,0,1,29,15ZM.5,15H4a.5.5,0,0,1,.5.5v2A.5.5,0,0,1,4,18H.5a.5.5,0,0,1-.5-.5v-2A.5.5,0,0,1,.5,15ZM18,.5V4a.5.5,0,0,1-.5.5h-2A.5.5,0,0,1,15,4V.5a.5.5,0,0,1,.5-.5h2A.5.5,0,0,1,18,.5ZM6.23,4.11l2.49,2.5a.48.48,0,0,1,0,.7L7.3,8.72a.5.5,0,0,1-.71,0L4.1,6.25a.51.51,0,0,1,0-.71L5.53,4.11A.48.48,0,0,1,6.23,4.11ZM24.28,6.59l2.47-2.48a.5.5,0,0,1,.71,0L28.9,5.54a.5.5,0,0,1,0,.71L26.41,8.72a.5.5,0,0,1-.71,0L24.28,7.3A.5.5,0,0,1,24.28,6.59ZM16.5,7.5A9,9,0,0,1,21,24.3V27a1.5,1.5,0,0,1-1.5,1.5h-6A1.5,1.5,0,0,1,12,27V24.3A9,9,0,0,1,16.5,7.5m3,22.5v1.5A1.5,1.5,0,0,1,18,33H15a1.5,1.5,0,0,1-1.5-1.5V30h6M15,25.5h3V22.3a6,6,0,1,0-3,0Z"/></svg>