<svg xmlns="http://www.w3.org/2000/svg" viewBox="0 0 33 33"><path d="M25.71,20.43H6.29L.85,25.86A.5.5,0,0,1,0,25.51V2A2,2,0,0,1,2,0H25.71a1,1,0,0,1,1,1V19.43A1,1,0,0,1,25.71,20.43Zm6.44,11.72-5.44-5.44H8.86a1,1,0,0,1-1-1V23.57h20a2,2,0,0,0,2-2V9.43H32a1,1,0,0,1,1,1V31.79A.5.5,0,0,1,32.15,32.15ZM9.7,3.14a5.55,5.55,0,0,0-3.32.93A3.11,3.11,0,0,0,5.31,5.61a1,1,0,0,0,1,1.29H7.51a.92.92,0,0,0,.83-.63,1.23,1.23,0,0,1,.32-.46,1.6,1.6,0,0,1,1-.36,1.62,1.62,0,0,1,1.17.44,1.64,1.64,0,0,1,.41,1.18,2.2,2.2,0,0,1-.36,1.29,2.86,2.86,0,0,1-1,.93,6.21,6.21,0,0,0-1.65,1.43,1.82,1.82,0,0,0-.25.46A1,1,0,0,0,9,12.57h1.09a1,1,0,0,0,1-.78,1.88,1.88,0,0,1,.13-.38,2.2,2.2,0,0,1,.8-.82,5.17,5.17,0,0,0,1.57-1.23,3.78,3.78,0,0,0,.81-3,3.4,3.4,0,0,0-1.21-2.13A5.15,5.15,0,0,0,9.7,3.14M7.86,16.29a1,1,0,0,0,1,1H10a1,1,0,0,0,1-1V15.14a1,1,0,0,0-1-1H8.86a1,1,0,0,0-1,1Zm11.57,1a1,1,0,0,0,1-1V15.14a1,1,0,0,0-1-1H18.29a1,1,0,0,0-1,1v1.15a1,1,0,0,0,1,1ZM17.29,4.14v7.43a1,1,0,0,0,1,1h1.14a1,1,0,0,0,1-1V4.14a1,1,0,0,0-1-1H18.29A1,1,0,0,0,17.29,4.14Z"/></svg>