<?xml version="1.0" encoding="utf-8"?>
<!-- Generator: Adobe Illustrator 25.2.1, SVG Export Plug-In . SVG Version: 6.00 Build 0)  -->
<svg version="1.1" id="Layer_1" xmlns="http://www.w3.org/2000/svg" xmlns:xlink="http://www.w3.org/1999/xlink" x="0px" y="0px"
	 viewBox="0 0 33 33" style="enable-background:new 0 0 33 33;" xml:space="preserve">
<style type="text/css">
	.st0{fill:#231F20;}
</style>
<path class="st0" d="M31.2,15.8c-2.8-5.5-8.3-9.3-14.7-9.3S4.7,10.2,1.9,15.8c-0.1,0.2-0.2,0.5-0.2,0.8c0,0.3,0.1,0.5,0.2,0.8
	c2.8,5.5,8.3,9.3,14.7,9.3s11.9-3.7,14.7-9.3c0.1-0.2,0.2-0.5,0.2-0.8C31.4,16.3,31.3,16,31.2,15.8z M16.5,24.1
	c-4.1,0-7.4-3.4-7.4-7.5S12.4,9,16.5,9s7.4,3.4,7.4,7.5v0C24,20.7,20.6,24.1,16.5,24.1C16.5,24.1,16.5,24.1,16.5,24.1z M16.5,11.5
	c-0.5,0-0.9,0.1-1.3,0.2c0.3,0.4,0.5,0.9,0.5,1.5c0,1.4-1.1,2.5-2.5,2.5c-0.5,0-1.1-0.2-1.5-0.5c-0.1,0.4-0.2,0.9-0.2,1.3
	c0,2.8,2.2,5,4.9,5c2.7,0,4.9-2.2,4.9-5C21.5,13.7,19.3,11.5,16.5,11.5C16.6,11.5,16.5,11.5,16.5,11.5z"/>
</svg>
