<svg xmlns="http://www.w3.org/2000/svg" xmlns:xlink="http://www.w3.org/1999/xlink" viewBox="0 0 40.34 40.34"><defs><style>.a,.ac,.ad,.ae,.af,.ag,.c,.d,.i,.j,.l,.m,.o,.s,.v,.w,.x{fill:none;}.b{fill:#29abe2;opacity:0.1;}.c,.d,.x{stroke:#0071bc;}.ac,.ad,.ae,.af,.ag,.c,.d,.i,.j,.l,.o,.s,.v,.w,.x{stroke-miterlimit:10;}.c,.d,.i,.j,.m{stroke-width:0.1px;}.d{stroke-dasharray:0.6 0.5;}.e,.z{font-size:1.5px;}.e,.f{fill:#ff7bac;}.e,.f,.q,.z{font-family:Calibri-Light, Calibri;font-weight:300;}.f{font-size:0.6px;}.g{clip-path:url(#a);}.h{fill:#3fa9f5;opacity:0.39;}.ae,.af,.ag,.i,.l,.v,.w{stroke:#000;}.i,.s{stroke-dasharray:0.1 0.1;}.i{opacity:0.11;}.j,.m,.s{stroke:#ed1c24;}.k,.s{opacity:0.28;}.l,.m,.s{stroke-linecap:round;}.ac,.ad,.l,.o,.s,.v,.w,.x{stroke-width:0.05px;}.l{stroke-dasharray:0.1 0.1;}.m{stroke-linejoin:round;}.n{opacity:0.53;}.o{stroke:#662d91;}.p{fill:#662d91;}.q{font-size:1px;}.q,.z{fill:#f7931e;}.r{opacity:0.33;}.t{opacity:0.34;}.u{opacity:0.29;}.v{stroke-dasharray:0.1 0.1;}.w{opacity:0.19;}.y{fill:#0071bc;}.aa{opacity:0.2;}.ab{fill:#c1272d;}.ac{stroke:#f7931e;}.ad{stroke:#b3b3b3;stroke-dasharray:0.1 0.1;}.ae,.af,.ag{stroke-width:0.03px;}.af{stroke-dasharray:0.1 0.1;}.ag{stroke-dasharray:0.1 0.1;}</style><clipPath id="a"><circle class="a" cx="20.99" cy="15.2" r="5.88"/></clipPath></defs><path class="b" d="M36.67,21.67v-3a1,1,0,0,0-1-1h-2a1,1,0,0,1-1-.78,13.14,13.14,0,0,0-1.37-3.3,1,1,0,0,1,.14-1.23L32.9,11a1,1,0,0,0,0-1.42L30.78,7.44a1,1,0,0,0-1.42,0L28,8.82A1,1,0,0,1,26.75,9a13.14,13.14,0,0,0-3.3-1.37,1,1,0,0,1-.78-1V4.67a1,1,0,0,0-1-1h-3a1,1,0,0,0-1,1v2a1,1,0,0,1-.78,1A13.14,13.14,0,0,0,13.59,9a1,1,0,0,1-1.23-.14L11,7.44a1,1,0,0,0-1.42,0L7.44,9.56a1,1,0,0,0,0,1.42l1.38,1.38A1,1,0,0,1,9,13.59a13.14,13.14,0,0,0-1.37,3.3,1,1,0,0,1-1,.78H4.67a1,1,0,0,0-1,1v3a1,1,0,0,0,1,1h2a1,1,0,0,1,1,.78A13.14,13.14,0,0,0,9,26.75,1,1,0,0,1,8.82,28L7.44,29.36a1,1,0,0,0,0,1.42L9.56,32.9a1,1,0,0,0,1.42,0l1.38-1.38a1,1,0,0,1,1.23-.14,13.14,13.14,0,0,0,3.3,1.37,1,1,0,0,1,.78,1v2a1,1,0,0,0,1,1h3a1,1,0,0,0,1-1v-2a1,1,0,0,1,.78-1,13.14,13.14,0,0,0,3.3-1.37,1,1,0,0,1,1.23.14l1.38,1.38a1,1,0,0,0,1.42,0l2.12-2.12a1,1,0,0,0,0-1.42L31.52,28a1,1,0,0,1-.14-1.23,13.14,13.14,0,0,0,1.37-3.3,1,1,0,0,1,1-.78h2A1,1,0,0,0,36.67,21.67Zm-16.5,7.5a9,9,0,1,1,9-9A9,9,0,0,1,20.17,29.17Z"/><polyline class="c" points="36.67 36.37 36.67 36.67 36.37 36.67"/><line class="d" x1="35.87" y1="36.67" x2="4.22" y2="36.67"/><polyline class="c" points="3.97 36.67 3.67 36.67 3.67 36.37"/><line class="d" x1="3.67" y1="35.87" x2="3.67" y2="4.22"/><polyline class="c" points="3.67 3.97 3.67 3.67 3.97 3.67"/><line class="d" x1="4.47" y1="3.67" x2="36.12" y2="3.67"/><polyline class="c" points="36.37 3.67 36.67 3.67 36.67 3.97"/><line class="d" x1="36.67" y1="4.47" x2="36.67" y2="36.12"/><text class="e" transform="translate(3.89 3.09)">33px</text><text class="e" transform="translate(37.5 4.08) rotate(90)">33px</text><text class="f" transform="translate(32.51 4.4)">3px</text><text class="f" transform="translate(32.78 5.83)">1px</text><g class="g"><path class="h" d="M33.86,14.51a27.77,27.77,0,0,0-5.42,2.25,2.43,2.43,0,0,1-2.9-.37L22.75,13.6a2.41,2.41,0,0,0-3.39,0l-5.07,5.08a2.38,2.38,0,0,0,0,3.38l2.77,2.78"/><circle class="i" cx="20.99" cy="15.2" r="5.88"/><path class="j" d="M33.86,14.51a27.77,27.77,0,0,0-5.42,2.25,2.43,2.43,0,0,1-2.9-.37L22.75,13.6a2.41,2.41,0,0,0-3.39,0l-5.07,5.08a2.38,2.38,0,0,0,0,3.38l2.77,2.78"/><g class="k"><circle class="l" cx="21.05" cy="15.2" r="2.3"/></g><line class="m" x1="12.38" y1="12.9" x2="29.71" y2="12.9"/><g class="n"><line class="o" x1="19.45" y1="13.61" x2="21.04" y2="15.19"/><rect class="p" x="19.37" y="13.59" width="0.16" height="0.03" transform="translate(-3.93 17.73) rotate(-44.99)"/><rect class="p" x="20.96" y="15.18" width="0.16" height="0.02" transform="translate(-4.58 19.33) rotate(-45.01)"/></g><text class="q" transform="translate(20.09 13.67) rotate(45)">1px</text><circle class="r" cx="21.05" cy="15.2" r="0.05"/><line class="s" x1="17.03" y1="15.94" x2="23.39" y2="9.57"/><line class="s" x1="25.44" y1="16.29" x2="18.37" y2="9.22"/><g class="t"><path d="M20.09,16.88a.35.35,0,0,1,.06-.09l.05,0,0,.06h0a.11.11,0,0,1,.13,0h0l0,.05h0s-.08,0-.12,0l0,0-.1.16-.06,0Z"/><path d="M20.53,17.26v0h0a.12.12,0,0,1-.12,0,.09.09,0,0,1-.07-.13c0-.08.11-.1.24-.06h0a.07.07,0,0,0-.05-.1h-.09v-.05a.17.17,0,0,1,.12,0c.1,0,.1.11.08.18l0,.13a.24.24,0,0,0,0,.08Zm0-.18c-.07,0-.15,0-.17,0a.06.06,0,0,0,0,.08.08.08,0,0,0,.1,0v0Z"/><path d="M21.13,16.81l0,.43v.09h-.06v-.06h0a.13.13,0,0,1-.12.07c-.09,0-.16-.06-.16-.17A.17.17,0,0,1,21,17a.14.14,0,0,1,.11.05h0v-.21Zm-.05.31s0,0,0,0A.1.1,0,0,0,21,17a.12.12,0,0,0-.1.15c0,.07,0,.13.11.12a.09.09,0,0,0,.09-.08v-.09Z"/><path d="M21.38,16.83s0,.05,0,.05a0,0,0,0,1-.05,0s0,0,0-.05A0,0,0,0,1,21.38,16.83Zm.07.46L21.34,17l.06,0,.11.34Z"/><path d="M22,17l.06.08-.05,0L22,17h0a.13.13,0,0,1-.06.12c-.05,0-.12.05-.19-.06l-.11-.17.05,0,.11.17c0,.05.08.08.13.05a.14.14,0,0,0,0-.1l0,0-.12-.18.05,0Z"/><path d="M22.2,16.89l.07-.05s0-.07,0-.09-.05,0-.09,0-.11,0-.14,0a.1.1,0,0,1,0-.16.19.19,0,0,1,.07-.06l0,.05a.09.09,0,0,0-.07,0,.06.06,0,0,0,0,.08.08.08,0,0,0,.09,0,.12.12,0,0,1,.14,0,.11.11,0,0,1,0,.17.21.21,0,0,1-.08.06Z"/></g></g><g class="u"><circle class="v" cx="10.49" cy="8.07" r="2.39"/></g><line class="w" x1="11.12" y1="5.77" x2="23.07" y2="9.7"/><line class="w" x1="8.73" y1="9.69" x2="16.58" y2="19.08"/><g class="n"><line class="x" x1="11.8" y1="16.7" x2="8.14" y2="15.24"/><rect class="y" x="11.64" y="16.68" width="0.32" height="0.05" transform="translate(-8.09 21.45) rotate(-68.17)"/><rect class="y" x="7.97" y="15.21" width="0.33" height="0.05" transform="translate(-9.03 17.12) rotate(-68.17)"/></g><text class="z" transform="matrix(0.93, 0.37, -0.37, 0.93, 8.98, 14.93)">4px</text><g class="n"><line class="x" x1="22.69" y1="6.3" x2="17.65" y2="6.28"/><rect class="y" x="22.53" y="6.27" width="0.32" height="0.05" transform="translate(16.32 28.97) rotate(-89.79)"/><rect class="y" x="17.49" y="6.25" width="0.32" height="0.05" transform="translate(11.31 23.9) rotate(-89.79)"/></g><text class="z" transform="matrix(1, 0, 0, 1, 19.13, 5.47)">5px</text><g class="aa"><path class="ab" d="M21.67,3.67a1,1,0,0,1,1,1v2a1,1,0,0,0,.78,1A13.14,13.14,0,0,1,26.75,9a1,1,0,0,0,.53.15,1,1,0,0,0,.7-.29l1.38-1.38a1,1,0,0,1,1.42,0L32.9,9.56a1,1,0,0,1,0,1.42l-1.38,1.38a1,1,0,0,0-.14,1.23,13.14,13.14,0,0,1,1.37,3.3,1,1,0,0,0,1,.78h2a1,1,0,0,1,1,1v3a1,1,0,0,1-1,1h-2a1,1,0,0,0-1,.78,13.14,13.14,0,0,1-1.37,3.3A1,1,0,0,0,31.52,28l1.38,1.38a1,1,0,0,1,0,1.42L30.78,32.9a1,1,0,0,1-1.42,0L28,31.52a1,1,0,0,0-.69-.29,1,1,0,0,0-.54.15,13.14,13.14,0,0,1-3.3,1.37,1,1,0,0,0-.78,1v2a1,1,0,0,1-1,1h-3a1,1,0,0,1-1-1v-2a1,1,0,0,0-.78-1,13.14,13.14,0,0,1-3.3-1.37,1,1,0,0,0-.53-.15,1,1,0,0,0-.7.29L11,32.9a1,1,0,0,1-1.42,0L7.44,30.78a1,1,0,0,1,0-1.42L8.82,28A1,1,0,0,0,9,26.75a13.14,13.14,0,0,1-1.37-3.3,1,1,0,0,0-1-.78H4.67a1,1,0,0,1-1-1v-3a1,1,0,0,1,1-1h2a1,1,0,0,0,1-.78A13.14,13.14,0,0,1,9,13.59a1,1,0,0,0-.14-1.23L7.44,11a1,1,0,0,1,0-1.42L9.56,7.44a1,1,0,0,1,1.42,0l1.38,1.38a1,1,0,0,0,.7.29A1,1,0,0,0,13.59,9a13.14,13.14,0,0,1,3.3-1.37,1,1,0,0,0,.78-1V4.67a1,1,0,0,1,1-1h3m0,0h-3a1,1,0,0,0-1.05,1v2a1,1,0,0,1-.74.93,12.79,12.79,0,0,0-3.31,1.37,1.06,1.06,0,0,1-.51.14,1,1,0,0,1-.67-.27L11,7.41a1,1,0,0,0-1.48,0L7.41,9.53a1,1,0,0,0,0,1.48l1.38,1.38a1,1,0,0,1,.13,1.18,12.79,12.79,0,0,0-1.37,3.31,1,1,0,0,1-.93.74H4.67a1,1,0,0,0-1,1.05v3a1,1,0,0,0,1,1h2a1,1,0,0,1,.93.74,12.79,12.79,0,0,0,1.37,3.31A1,1,0,0,1,8.79,28L7.41,29.33a1,1,0,0,0,0,1.48l2.12,2.12a1,1,0,0,0,1.48,0l1.38-1.38a1,1,0,0,1,.67-.27,1.06,1.06,0,0,1,.51.14,13.17,13.17,0,0,0,3.31,1.38,1,1,0,0,1,.74.92v2a1,1,0,0,0,1.05,1h3a1,1,0,0,0,1-1v-2a1,1,0,0,1,.74-.92,13.17,13.17,0,0,0,3.31-1.38,1.07,1.07,0,0,1,.52-.14,1,1,0,0,1,.66.27l1.38,1.38a1,1,0,0,0,1.48,0l2.12-2.12a1,1,0,0,0,0-1.48L31.55,28a1,1,0,0,1-.13-1.18,13.17,13.17,0,0,0,1.38-3.31,1,1,0,0,1,.92-.74h2a1,1,0,0,0,1-1v-3a1,1,0,0,0-1-1.05h-2a1,1,0,0,1-.92-.74,13.17,13.17,0,0,0-1.38-3.31,1,1,0,0,1,.13-1.18L32.93,11a1,1,0,0,0,0-1.48L30.81,7.41a1,1,0,0,0-1.48,0L28,8.79a1,1,0,0,1-.67.27,1.06,1.06,0,0,1-.51-.14,12.79,12.79,0,0,0-3.31-1.37,1,1,0,0,1-.74-.93V4.67a1,1,0,0,0-1-1Z"/></g><path class="ac" d="M32.38,4.66h3a0,0,0,0,1,0,0v2.5a.5.5,0,0,1-.5.5h-2.5a0,0,0,0,1,0,0v-3A0,0,0,0,1,32.38,4.66Z"/><path class="ad" d="M34.38,7.16a.5.5,0,0,1,.5-.5.51.51,0,0,1,.5.5.5.5,0,0,1-.5.5A.5.5,0,0,1,34.38,7.16Z"/><line class="ae" x1="32.63" y1="6.05" x2="32.68" y2="6.05"/><line class="af" x1="32.78" y1="6.05" x2="33.88" y2="6.05"/><polyline class="ae" points="33.93 6.05 33.98 6.05 34.01 6.09"/><line class="ag" x1="34.08" y1="6.17" x2="34.81" y2="7.08"/><line class="ae" x1="34.85" y1="7.12" x2="34.88" y2="7.16"/></svg>